ISO-10303-21;
HEADER;
/* Generated by software containing ST-Developer
 * from STEP Tools, Inc. (www.steptools.com) 
 */

FILE_DESCRIPTION(
/* description */ (''),
/* implementation_level */ '2;1');

FILE_NAME(
/* name */ 'Nozzle.step',
/* time_stamp */ '2026-09-28T23:01:48+05:30',
/* author */ (''),
/* organization */ (''),
/* preprocessor_version */ 'ST-DEVELOPER v20.2',
/* originating_system */ 'Autodesk Translation Framework v15.15.0.0',
/* authorisation */ '');

FILE_SCHEMA (('AUTOMOTIVE_DESIGN { 1 0 10303 214 3 1 1 }'));
ENDSEC;

DATA;
#10=MECHANICAL_DESIGN_GEOMETRIC_PRESENTATION_REPRESENTATION('',(#13),#176);
#11=SHAPE_REPRESENTATION_RELATIONSHIP('SRR','None',#183,#12);
#12=ADVANCED_BREP_SHAPE_REPRESENTATION('',(#14),#175);
#13=STYLED_ITEM('',(#192),#14);
#14=MANIFOLD_SOLID_BREP('Body1',#92);
#15=CYLINDRICAL_SURFACE('',#112,77.125);
#16=FACE_BOUND('',#36,.T.);
#17=FACE_BOUND('',#39,.T.);
#18=LINE('',#157,#21);
#19=LINE('',#164,#22);
#20=LINE('',#171,#23);
#21=VECTOR('',#129,43.57);
#22=VECTOR('',#138,77.125);
#23=VECTOR('',#147,36.07);
#24=CONICAL_SURFACE('',#108,43.57,0.836137679513463);
#25=CONICAL_SURFACE('',#116,36.07,0.940112008257178);
#26=FACE_OUTER_BOUND('',#33,.T.);
#27=FACE_OUTER_BOUND('',#34,.T.);
#28=FACE_OUTER_BOUND('',#35,.T.);
#29=FACE_OUTER_BOUND('',#37,.T.);
#30=FACE_OUTER_BOUND('',#38,.T.);
#31=FACE_OUTER_BOUND('',#40,.T.);
#32=FACE_OUTER_BOUND('',#41,.T.);
#33=EDGE_LOOP('',(#63));
#34=EDGE_LOOP('',(#64,#65,#66,#67));
#35=EDGE_LOOP('',(#68));
#36=EDGE_LOOP('',(#69));
#37=EDGE_LOOP('',(#70,#71,#72,#73));
#38=EDGE_LOOP('',(#74));
#39=EDGE_LOOP('',(#75));
#40=EDGE_LOOP('',(#76,#77,#78,#79));
#41=EDGE_LOOP('',(#80));
#42=CIRCLE('',#107,32.5);
#43=CIRCLE('',#109,54.64);
#44=CIRCLE('',#111,77.125);
#45=CIRCLE('',#113,77.125);
#46=CIRCLE('',#115,44.64);
#47=CIRCLE('',#117,27.5);
#48=VERTEX_POINT('',#152);
#49=VERTEX_POINT('',#155);
#50=VERTEX_POINT('',#159);
#51=VERTEX_POINT('',#162);
#52=VERTEX_POINT('',#166);
#53=VERTEX_POINT('',#169);
#54=EDGE_CURVE('',#48,#48,#42,.T.);
#55=EDGE_CURVE('',#49,#49,#43,.T.);
#56=EDGE_CURVE('',#49,#48,#18,.T.);
#57=EDGE_CURVE('',#50,#50,#44,.T.);
#58=EDGE_CURVE('',#51,#51,#45,.T.);
#59=EDGE_CURVE('',#51,#50,#19,.T.);
#60=EDGE_CURVE('',#52,#52,#46,.T.);
#61=EDGE_CURVE('',#53,#53,#47,.T.);
#62=EDGE_CURVE('',#53,#52,#20,.T.);
#63=ORIENTED_EDGE('',*,*,#54,.F.);
#64=ORIENTED_EDGE('',*,*,#55,.F.);
#65=ORIENTED_EDGE('',*,*,#56,.T.);
#66=ORIENTED_EDGE('',*,*,#54,.T.);
#67=ORIENTED_EDGE('',*,*,#56,.F.);
#68=ORIENTED_EDGE('',*,*,#57,.F.);
#69=ORIENTED_EDGE('',*,*,#55,.T.);
#70=ORIENTED_EDGE('',*,*,#58,.F.);
#71=ORIENTED_EDGE('',*,*,#59,.T.);
#72=ORIENTED_EDGE('',*,*,#57,.T.);
#73=ORIENTED_EDGE('',*,*,#59,.F.);
#74=ORIENTED_EDGE('',*,*,#58,.T.);
#75=ORIENTED_EDGE('',*,*,#60,.F.);
#76=ORIENTED_EDGE('',*,*,#61,.F.);
#77=ORIENTED_EDGE('',*,*,#62,.T.);
#78=ORIENTED_EDGE('',*,*,#60,.T.);
#79=ORIENTED_EDGE('',*,*,#62,.F.);
#80=ORIENTED_EDGE('',*,*,#61,.T.);
#81=PLANE('',#106);
#82=PLANE('',#110);
#83=PLANE('',#114);
#84=PLANE('',#118);
#85=ADVANCED_FACE('',(#26),#81,.T.);
#86=ADVANCED_FACE('',(#27),#24,.T.);
#87=ADVANCED_FACE('',(#28,#16),#82,.T.);
#88=ADVANCED_FACE('',(#29),#15,.T.);
#89=ADVANCED_FACE('',(#30,#17),#83,.T.);
#90=ADVANCED_FACE('',(#31),#25,.T.);
#91=ADVANCED_FACE('',(#32),#84,.T.);
#92=CLOSED_SHELL('',(#85,#86,#87,#88,#89,#90,#91));
#93=DERIVED_UNIT_ELEMENT(#95,1.);
#94=DERIVED_UNIT_ELEMENT(#178,-3.);
#95=(
MASS_UNIT()
NAMED_UNIT(*)
SI_UNIT(.KILO.,.GRAM.)
);
#96=DERIVED_UNIT((#93,#94));
#97=MEASURE_REPRESENTATION_ITEM('density measure',
POSITIVE_RATIO_MEASURE(7850.),#96);
#98=PROPERTY_DEFINITION_REPRESENTATION(#103,#100);
#99=PROPERTY_DEFINITION_REPRESENTATION(#104,#101);
#100=REPRESENTATION('material name',(#102),#175);
#101=REPRESENTATION('density',(#97),#175);
#102=DESCRIPTIVE_REPRESENTATION_ITEM('Steel','Steel');
#103=PROPERTY_DEFINITION('material property','material name',#185);
#104=PROPERTY_DEFINITION('material property','density of part',#185);
#105=AXIS2_PLACEMENT_3D('',#150,#119,#120);
#106=AXIS2_PLACEMENT_3D('',#151,#121,#122);
#107=AXIS2_PLACEMENT_3D('',#153,#123,#124);
#108=AXIS2_PLACEMENT_3D('',#154,#125,#126);
#109=AXIS2_PLACEMENT_3D('',#156,#127,#128);
#110=AXIS2_PLACEMENT_3D('',#158,#130,#131);
#111=AXIS2_PLACEMENT_3D('',#160,#132,#133);
#112=AXIS2_PLACEMENT_3D('',#161,#134,#135);
#113=AXIS2_PLACEMENT_3D('',#163,#136,#137);
#114=AXIS2_PLACEMENT_3D('',#165,#139,#140);
#115=AXIS2_PLACEMENT_3D('',#167,#141,#142);
#116=AXIS2_PLACEMENT_3D('',#168,#143,#144);
#117=AXIS2_PLACEMENT_3D('',#170,#145,#146);
#118=AXIS2_PLACEMENT_3D('',#172,#148,#149);
#119=DIRECTION('axis',(0.,0.,1.));
#120=DIRECTION('refdir',(1.,0.,0.));
#121=DIRECTION('center_axis',(0.,0.,-1.));
#122=DIRECTION('ref_axis',(-1.,0.,0.));
#123=DIRECTION('center_axis',(0.,0.,1.));
#124=DIRECTION('ref_axis',(1.,0.,0.));
#125=DIRECTION('center_axis',(0.,0.,1.));
#126=DIRECTION('ref_axis',(1.,0.,0.));
#127=DIRECTION('center_axis',(0.,0.,1.));
#128=DIRECTION('ref_axis',(1.,0.,0.));
#129=DIRECTION('',(0.742059616926814,9.08760934645934E-17,-0.670333890629461));
#130=DIRECTION('center_axis',(0.,0.,-1.));
#131=DIRECTION('ref_axis',(-1.,0.,0.));
#132=DIRECTION('center_axis',(0.,0.,1.));
#133=DIRECTION('ref_axis',(1.,0.,0.));
#134=DIRECTION('center_axis',(0.,0.,1.));
#135=DIRECTION('ref_axis',(1.,0.,0.));
#136=DIRECTION('center_axis',(0.,0.,1.));
#137=DIRECTION('ref_axis',(1.,0.,0.));
#138=DIRECTION('',(0.,0.,-1.));
#139=DIRECTION('center_axis',(0.,0.,1.));
#140=DIRECTION('ref_axis',(1.,0.,0.));
#141=DIRECTION('center_axis',(0.,0.,1.));
#142=DIRECTION('ref_axis',(1.,0.,0.));
#143=DIRECTION('center_axis',(0.,0.,-1.));
#144=DIRECTION('ref_axis',(1.,0.,0.));
#145=DIRECTION('center_axis',(0.,0.,1.));
#146=DIRECTION('ref_axis',(1.,0.,0.));
#147=DIRECTION('',(-0.807624156468013,-9.89054338132633E-17,-0.589697568156195));
#148=DIRECTION('center_axis',(0.,0.,1.));
#149=DIRECTION('ref_axis',(1.,0.,0.));
#150=CARTESIAN_POINT('',(0.,0.,0.));
#151=CARTESIAN_POINT('Origin',(32.5,0.,-70.));
#152=CARTESIAN_POINT('',(-32.5,-3.9801020972289E-15,-70.));
#153=CARTESIAN_POINT('Origin',(0.,0.,-70.));
#154=CARTESIAN_POINT('Origin',(0.,0.,-60.));
#155=CARTESIAN_POINT('',(-54.64,-6.69147011054114E-15,-50.));
#156=CARTESIAN_POINT('Origin',(0.,0.,-50.));
#157=CARTESIAN_POINT('',(-43.57,-5.33578610388502E-15,-60.));
#158=CARTESIAN_POINT('Origin',(77.125,0.,-50.));
#159=CARTESIAN_POINT('',(-77.125,-9.44508843842396E-15,-50.));
#160=CARTESIAN_POINT('Origin',(0.,0.,-50.));
#161=CARTESIAN_POINT('Origin',(0.,0.,-31.2575));
#162=CARTESIAN_POINT('',(-77.125,-9.44508843842396E-15,-12.515));
#163=CARTESIAN_POINT('Origin',(0.,0.,-12.515));
#164=CARTESIAN_POINT('',(-77.125,-9.44508843842396E-15,-31.2575));
#165=CARTESIAN_POINT('Origin',(44.64,0.,-12.515));
#166=CARTESIAN_POINT('',(-44.64,-5.46682331139379E-15,-12.515));
#167=CARTESIAN_POINT('Origin',(0.,0.,-12.515));
#168=CARTESIAN_POINT('Origin',(0.,0.,-6.2575));
#169=CARTESIAN_POINT('',(-27.5,-3.36777869765522E-15,0.));
#170=CARTESIAN_POINT('Origin',(0.,0.,0.));
#171=CARTESIAN_POINT('',(-36.07,-4.4173010045245E-15,-6.2575));
#172=CARTESIAN_POINT('Origin',(0.,0.,0.));
#173=UNCERTAINTY_MEASURE_WITH_UNIT(LENGTH_MEASURE(0.01),#177,
'DISTANCE_ACCURACY_VALUE',
'Maximum model space distance between geometric entities at asserted c
onnectivities');
#174=UNCERTAINTY_MEASURE_WITH_UNIT(LENGTH_MEASURE(0.01),#177,
'DISTANCE_ACCURACY_VALUE',
'Maximum model space distance between geometric entities at asserted c
onnectivities');
#175=(
GEOMETRIC_REPRESENTATION_CONTEXT(3)
GLOBAL_UNCERTAINTY_ASSIGNED_CONTEXT((#173))
GLOBAL_UNIT_ASSIGNED_CONTEXT((#177,#179,#180))
REPRESENTATION_CONTEXT('','3D')
);
#176=(
GEOMETRIC_REPRESENTATION_CONTEXT(3)
GLOBAL_UNCERTAINTY_ASSIGNED_CONTEXT((#174))
GLOBAL_UNIT_ASSIGNED_CONTEXT((#177,#179,#180))
REPRESENTATION_CONTEXT('','3D')
);
#177=(
LENGTH_UNIT()
NAMED_UNIT(*)
SI_UNIT(.MILLI.,.METRE.)
);
#178=(
LENGTH_UNIT()
NAMED_UNIT(*)
SI_UNIT($,.METRE.)
);
#179=(
NAMED_UNIT(*)
PLANE_ANGLE_UNIT()
SI_UNIT($,.RADIAN.)
);
#180=(
NAMED_UNIT(*)
SI_UNIT($,.STERADIAN.)
SOLID_ANGLE_UNIT()
);
#181=SHAPE_DEFINITION_REPRESENTATION(#182,#183);
#182=PRODUCT_DEFINITION_SHAPE('',$,#185);
#183=SHAPE_REPRESENTATION('',(#105),#175);
#184=PRODUCT_DEFINITION_CONTEXT('part definition',#189,'design');
#185=PRODUCT_DEFINITION('2026-09-28-23-01-48-858','Nozzle',#186,#184);
#186=PRODUCT_DEFINITION_FORMATION('',$,#191);
#187=PRODUCT_RELATED_PRODUCT_CATEGORY('Nozzle','Nozzle',(#191));
#188=APPLICATION_PROTOCOL_DEFINITION('international standard',
'automotive_design',2009,#189);
#189=APPLICATION_CONTEXT(
'Core Data for Automotive Mechanical Design Process');
#190=PRODUCT_CONTEXT('part definition',#189,'mechanical');
#191=PRODUCT('2026-09-28-23-01-48-858','Nozzle',$,(#190));
#192=PRESENTATION_STYLE_ASSIGNMENT((#193));
#193=SURFACE_STYLE_USAGE(.BOTH.,#194);
#194=SURFACE_SIDE_STYLE('',(#195));
#195=SURFACE_STYLE_FILL_AREA(#196);
#196=FILL_AREA_STYLE('Steel - Satin',(#197));
#197=FILL_AREA_STYLE_COLOUR('Steel - Satin',#198);
#198=COLOUR_RGB('Steel - Satin',0.627450980392157,0.627450980392157,0.627450980392157);
ENDSEC;
END-ISO-10303-21;
