%TF.GenerationSoftware,KiCad,Pcbnew,10.0.1*%
%TF.CreationDate,2026-10-03T22:40:03+05:30*%
%TF.ProjectId,sensor_board,73656e73-6f72-45f6-926f-6172642e6b69,rev?*%
%TF.SameCoordinates,Original*%
%TF.FileFunction,Paste,Top*%
%TF.FilePolarity,Positive*%
%FSLAX46Y46*%
G04 Gerber Fmt 4.6, Leading zero omitted, Abs format (unit mm)*
G04 Created by KiCad (PCBNEW 10.0.1) date 2026-10-03 22:40:03*
%MOMM*%
%LPD*%
G01*
G04 APERTURE LIST*
G04 Aperture macros list*
%AMRoundRect*
0 Rectangle with rounded corners*
0 $1 Rounding radius*
0 $2 $3 $4 $5 $6 $7 $8 $9 X,Y pos of 4 corners*
0 Add a 4 corners polygon primitive as box body*
4,1,4,$2,$3,$4,$5,$6,$7,$8,$9,$2,$3,0*
0 Add four circle primitives for the rounded corners*
1,1,$1+$1,$2,$3*
1,1,$1+$1,$4,$5*
1,1,$1+$1,$6,$7*
1,1,$1+$1,$8,$9*
0 Add four rect primitives between the rounded corners*
20,1,$1+$1,$2,$3,$4,$5,0*
20,1,$1+$1,$4,$5,$6,$7,0*
20,1,$1+$1,$6,$7,$8,$9,0*
20,1,$1+$1,$8,$9,$2,$3,0*%
G04 Aperture macros list end*
%ADD10RoundRect,0.218750X-0.218750X-0.256250X0.218750X-0.256250X0.218750X0.256250X-0.218750X0.256250X0*%
%ADD11RoundRect,0.225000X-0.225000X-0.250000X0.225000X-0.250000X0.225000X0.250000X-0.225000X0.250000X0*%
%ADD12R,1.600000X1.400000*%
%ADD13RoundRect,0.150000X0.825000X0.150000X-0.825000X0.150000X-0.825000X-0.150000X0.825000X-0.150000X0*%
%ADD14RoundRect,0.200000X0.275000X-0.200000X0.275000X0.200000X-0.275000X0.200000X-0.275000X-0.200000X0*%
%ADD15RoundRect,0.250000X-0.250000X-0.475000X0.250000X-0.475000X0.250000X0.475000X-0.250000X0.475000X0*%
%ADD16RoundRect,0.200000X-0.200000X-0.275000X0.200000X-0.275000X0.200000X0.275000X-0.200000X0.275000X0*%
%ADD17RoundRect,0.225000X0.225000X0.250000X-0.225000X0.250000X-0.225000X-0.250000X0.225000X-0.250000X0*%
%ADD18RoundRect,0.150000X-0.512500X-0.150000X0.512500X-0.150000X0.512500X0.150000X-0.512500X0.150000X0*%
%ADD19RoundRect,0.250000X0.475000X-0.250000X0.475000X0.250000X-0.475000X0.250000X-0.475000X-0.250000X0*%
%ADD20R,1.500000X0.900000*%
%ADD21R,0.900000X1.500000*%
%ADD22R,1.050000X1.050000*%
G04 APERTURE END LIST*
D10*
%TO.C,D1*%
X156645000Y-97470000D03*
X158220000Y-97470000D03*
%TD*%
D11*
%TO.C,C7*%
X156940000Y-102780000D03*
X158490000Y-102780000D03*
%TD*%
D12*
%TO.C,SW1*%
X127450000Y-101210000D03*
X120250000Y-101210000D03*
X127450000Y-98210000D03*
X120250000Y-98210000D03*
%TD*%
D13*
%TO.C,U3*%
X156390000Y-108210000D03*
X156390000Y-106940000D03*
X156390000Y-105670000D03*
X156390000Y-104400000D03*
X151440000Y-104400000D03*
X151440000Y-105670000D03*
X151440000Y-106940000D03*
X151440000Y-108210000D03*
%TD*%
D14*
%TO.C,R2*%
X128410000Y-104740000D03*
X128410000Y-103090000D03*
%TD*%
D15*
%TO.C,C5*%
X155850000Y-110720000D03*
X157750000Y-110720000D03*
%TD*%
D11*
%TO.C,C8*%
X163330000Y-107540000D03*
X164880000Y-107540000D03*
%TD*%
D16*
%TO.C,R7*%
X161385000Y-98370000D03*
X163035000Y-98370000D03*
%TD*%
%TO.C,R6*%
X153150000Y-97610000D03*
X154800000Y-97610000D03*
%TD*%
D17*
%TO.C,C2*%
X124570000Y-104140000D03*
X123020000Y-104140000D03*
%TD*%
D11*
%TO.C,C6*%
X149910000Y-96750000D03*
X151460000Y-96750000D03*
%TD*%
D14*
%TO.C,R1*%
X123230000Y-107410000D03*
X123230000Y-105760000D03*
%TD*%
D10*
%TO.C,D2*%
X164665000Y-98400000D03*
X166240000Y-98400000D03*
%TD*%
D18*
%TO.C,U2*%
X125535000Y-106930000D03*
X125535000Y-107880000D03*
X125535000Y-108830000D03*
X127810000Y-108830000D03*
X127810000Y-106930000D03*
%TD*%
D11*
%TO.C,C4*%
X164045000Y-95420000D03*
X165595000Y-95420000D03*
%TD*%
%TO.C,C9*%
X162620000Y-101310000D03*
X164170000Y-101310000D03*
%TD*%
D13*
%TO.C,U4*%
X156290000Y-116640000D03*
X156290000Y-115370000D03*
X156290000Y-114100000D03*
X156290000Y-112830000D03*
X151340000Y-112830000D03*
X151340000Y-114100000D03*
X151340000Y-115370000D03*
X151340000Y-116640000D03*
%TD*%
D19*
%TO.C,C1*%
X118000000Y-99160000D03*
X118000000Y-97260000D03*
%TD*%
D16*
%TO.C,R3*%
X163010000Y-104360000D03*
X164660000Y-104360000D03*
%TD*%
D15*
%TO.C,C3*%
X125890000Y-96030000D03*
X127790000Y-96030000D03*
%TD*%
D20*
%TO.C,U1*%
X130325000Y-96275000D03*
X130325000Y-97545000D03*
X130325000Y-98815000D03*
X130325000Y-100085000D03*
X130325000Y-101355000D03*
X130325000Y-102625000D03*
X130325000Y-103895000D03*
X130325000Y-105165000D03*
X130325000Y-106435000D03*
X130325000Y-107705000D03*
X130325000Y-108975000D03*
X130325000Y-110245000D03*
X130325000Y-111515000D03*
X130325000Y-112785000D03*
D21*
X133365000Y-114035000D03*
X134635000Y-114035000D03*
X135905000Y-114035000D03*
X137175000Y-114035000D03*
X138445000Y-114035000D03*
X139715000Y-114035000D03*
X140985000Y-114035000D03*
X142255000Y-114035000D03*
X143525000Y-114035000D03*
X144795000Y-114035000D03*
D20*
X147825000Y-112785000D03*
X147825000Y-111515000D03*
X147825000Y-110245000D03*
X147825000Y-108975000D03*
X147825000Y-107705000D03*
X147825000Y-106435000D03*
X147825000Y-105165000D03*
X147825000Y-103895000D03*
X147825000Y-102625000D03*
X147825000Y-101355000D03*
X147825000Y-100085000D03*
X147825000Y-98815000D03*
X147825000Y-97545000D03*
X147825000Y-96275000D03*
D22*
X136870000Y-102090000D03*
X136870000Y-103615000D03*
X136870000Y-105140000D03*
X138395000Y-102090000D03*
X138395000Y-103615000D03*
X138395000Y-105140000D03*
X139920000Y-102090000D03*
X139920000Y-103615000D03*
X139920000Y-105140000D03*
%TD*%
M02*
