M48
; DRILL file KiCad 10.0.1 date 2026-10-03T22:39:58
; FORMAT={-:-/ absolute / metric / decimal}
; #@! TF.CreationDate,2026-10-03T22:39:58+05:30
; #@! TF.GenerationSoftware,Kicad,Pcbnew,10.0.1
; #@! TF.FileFunction,Plated,1,2,PTH
FMAT,2
METRIC
; #@! TA.AperFunction,Plated,PTH,ComponentDrill
T1C0.200
; #@! TA.AperFunction,Plated,PTH,ViaDrill
T2C0.300
; #@! TA.AperFunction,Plated,PTH,ComponentDrill
T3C1.000
; #@! TA.AperFunction,Plated,PTH,ComponentDrill
T4C1.400
%
G90
G05
T1
X136.87Y-102.852
X136.87Y-104.377
X137.632Y-102.09
X137.632Y-103.615
X137.632Y-105.14
X138.395Y-102.852
X138.395Y-104.377
X139.157Y-102.09
X139.157Y-103.615
X139.157Y-105.14
X139.92Y-102.852
X139.92Y-104.377
T2
X122.24Y-103.05
X136.889Y-102.871
X136.89Y-104.377
X137.632Y-103.615
X137.651Y-102.109
X137.681Y-105.091
X138.395Y-104.377
X138.411Y-102.869
X139.157Y-103.615
X139.179Y-102.111
X139.22Y-105.14
X139.92Y-102.852
X140.005Y-104.315
X141.24Y-103.08
X141.27Y-104.43
X146.5Y-96.52
X152.42Y-96.49
X158.05Y-108.54
X158.83Y-96.39
X159.57Y-102.44
T3
X120.37Y-105.19
X120.37Y-107.73
X120.37Y-110.27
X150.91Y-100.24
X153.45Y-100.24
X155.99Y-100.24
X158.53Y-100.24
X159.88Y-113.95
X159.88Y-116.49
X160.44Y-105.46
X160.44Y-108.0
T4
X114.36Y-100.66
X114.36Y-105.66
M30
