%TF.GenerationSoftware,KiCad,Pcbnew,10.0.1*%
%TF.CreationDate,2026-10-03T22:40:03+05:30*%
%TF.ProjectId,sensor_board,73656e73-6f72-45f6-926f-6172642e6b69,rev?*%
%TF.SameCoordinates,Original*%
%TF.FileFunction,Legend,Top*%
%TF.FilePolarity,Positive*%
%FSLAX46Y46*%
G04 Gerber Fmt 4.6, Leading zero omitted, Abs format (unit mm)*
G04 Created by KiCad (PCBNEW 10.0.1) date 2026-10-03 22:40:03*
%MOMM*%
%LPD*%
G01*
G04 APERTURE LIST*
%ADD10C,0.150000*%
%ADD11C,0.120000*%
G04 APERTURE END LIST*
D10*
X156694405Y-96494819D02*
X156694405Y-95494819D01*
X156694405Y-95494819D02*
X156932500Y-95494819D01*
X156932500Y-95494819D02*
X157075357Y-95542438D01*
X157075357Y-95542438D02*
X157170595Y-95637676D01*
X157170595Y-95637676D02*
X157218214Y-95732914D01*
X157218214Y-95732914D02*
X157265833Y-95923390D01*
X157265833Y-95923390D02*
X157265833Y-96066247D01*
X157265833Y-96066247D02*
X157218214Y-96256723D01*
X157218214Y-96256723D02*
X157170595Y-96351961D01*
X157170595Y-96351961D02*
X157075357Y-96447200D01*
X157075357Y-96447200D02*
X156932500Y-96494819D01*
X156932500Y-96494819D02*
X156694405Y-96494819D01*
X158218214Y-96494819D02*
X157646786Y-96494819D01*
X157932500Y-96494819D02*
X157932500Y-95494819D01*
X157932500Y-95494819D02*
X157837262Y-95637676D01*
X157837262Y-95637676D02*
X157742024Y-95732914D01*
X157742024Y-95732914D02*
X157646786Y-95780533D01*
X154943333Y-103079580D02*
X154895714Y-103127200D01*
X154895714Y-103127200D02*
X154752857Y-103174819D01*
X154752857Y-103174819D02*
X154657619Y-103174819D01*
X154657619Y-103174819D02*
X154514762Y-103127200D01*
X154514762Y-103127200D02*
X154419524Y-103031961D01*
X154419524Y-103031961D02*
X154371905Y-102936723D01*
X154371905Y-102936723D02*
X154324286Y-102746247D01*
X154324286Y-102746247D02*
X154324286Y-102603390D01*
X154324286Y-102603390D02*
X154371905Y-102412914D01*
X154371905Y-102412914D02*
X154419524Y-102317676D01*
X154419524Y-102317676D02*
X154514762Y-102222438D01*
X154514762Y-102222438D02*
X154657619Y-102174819D01*
X154657619Y-102174819D02*
X154752857Y-102174819D01*
X154752857Y-102174819D02*
X154895714Y-102222438D01*
X154895714Y-102222438D02*
X154943333Y-102270057D01*
X155276667Y-102174819D02*
X155943333Y-102174819D01*
X155943333Y-102174819D02*
X155514762Y-103174819D01*
X160106666Y-102534819D02*
X160106666Y-103249104D01*
X160106666Y-103249104D02*
X160059047Y-103391961D01*
X160059047Y-103391961D02*
X159963809Y-103487200D01*
X159963809Y-103487200D02*
X159820952Y-103534819D01*
X159820952Y-103534819D02*
X159725714Y-103534819D01*
X160487619Y-102534819D02*
X161106666Y-102534819D01*
X161106666Y-102534819D02*
X160773333Y-102915771D01*
X160773333Y-102915771D02*
X160916190Y-102915771D01*
X160916190Y-102915771D02*
X161011428Y-102963390D01*
X161011428Y-102963390D02*
X161059047Y-103011009D01*
X161059047Y-103011009D02*
X161106666Y-103106247D01*
X161106666Y-103106247D02*
X161106666Y-103344342D01*
X161106666Y-103344342D02*
X161059047Y-103439580D01*
X161059047Y-103439580D02*
X161011428Y-103487200D01*
X161011428Y-103487200D02*
X160916190Y-103534819D01*
X160916190Y-103534819D02*
X160630476Y-103534819D01*
X160630476Y-103534819D02*
X160535238Y-103487200D01*
X160535238Y-103487200D02*
X160487619Y-103439580D01*
X122516667Y-103317200D02*
X122659524Y-103364819D01*
X122659524Y-103364819D02*
X122897619Y-103364819D01*
X122897619Y-103364819D02*
X122992857Y-103317200D01*
X122992857Y-103317200D02*
X123040476Y-103269580D01*
X123040476Y-103269580D02*
X123088095Y-103174342D01*
X123088095Y-103174342D02*
X123088095Y-103079104D01*
X123088095Y-103079104D02*
X123040476Y-102983866D01*
X123040476Y-102983866D02*
X122992857Y-102936247D01*
X122992857Y-102936247D02*
X122897619Y-102888628D01*
X122897619Y-102888628D02*
X122707143Y-102841009D01*
X122707143Y-102841009D02*
X122611905Y-102793390D01*
X122611905Y-102793390D02*
X122564286Y-102745771D01*
X122564286Y-102745771D02*
X122516667Y-102650533D01*
X122516667Y-102650533D02*
X122516667Y-102555295D01*
X122516667Y-102555295D02*
X122564286Y-102460057D01*
X122564286Y-102460057D02*
X122611905Y-102412438D01*
X122611905Y-102412438D02*
X122707143Y-102364819D01*
X122707143Y-102364819D02*
X122945238Y-102364819D01*
X122945238Y-102364819D02*
X123088095Y-102412438D01*
X123421429Y-102364819D02*
X123659524Y-103364819D01*
X123659524Y-103364819D02*
X123850000Y-102650533D01*
X123850000Y-102650533D02*
X124040476Y-103364819D01*
X124040476Y-103364819D02*
X124278572Y-102364819D01*
X125183333Y-103364819D02*
X124611905Y-103364819D01*
X124897619Y-103364819D02*
X124897619Y-102364819D01*
X124897619Y-102364819D02*
X124802381Y-102507676D01*
X124802381Y-102507676D02*
X124707143Y-102602914D01*
X124707143Y-102602914D02*
X124611905Y-102650533D01*
X117014819Y-103493333D02*
X117729104Y-103493333D01*
X117729104Y-103493333D02*
X117871961Y-103540952D01*
X117871961Y-103540952D02*
X117967200Y-103636190D01*
X117967200Y-103636190D02*
X118014819Y-103779047D01*
X118014819Y-103779047D02*
X118014819Y-103874285D01*
X118014819Y-102493333D02*
X118014819Y-103064761D01*
X118014819Y-102779047D02*
X117014819Y-102779047D01*
X117014819Y-102779047D02*
X117157676Y-102874285D01*
X117157676Y-102874285D02*
X117252914Y-102969523D01*
X117252914Y-102969523D02*
X117300533Y-103064761D01*
X153153095Y-109159819D02*
X153153095Y-109969342D01*
X153153095Y-109969342D02*
X153200714Y-110064580D01*
X153200714Y-110064580D02*
X153248333Y-110112200D01*
X153248333Y-110112200D02*
X153343571Y-110159819D01*
X153343571Y-110159819D02*
X153534047Y-110159819D01*
X153534047Y-110159819D02*
X153629285Y-110112200D01*
X153629285Y-110112200D02*
X153676904Y-110064580D01*
X153676904Y-110064580D02*
X153724523Y-109969342D01*
X153724523Y-109969342D02*
X153724523Y-109159819D01*
X154105476Y-109159819D02*
X154724523Y-109159819D01*
X154724523Y-109159819D02*
X154391190Y-109540771D01*
X154391190Y-109540771D02*
X154534047Y-109540771D01*
X154534047Y-109540771D02*
X154629285Y-109588390D01*
X154629285Y-109588390D02*
X154676904Y-109636009D01*
X154676904Y-109636009D02*
X154724523Y-109731247D01*
X154724523Y-109731247D02*
X154724523Y-109969342D01*
X154724523Y-109969342D02*
X154676904Y-110064580D01*
X154676904Y-110064580D02*
X154629285Y-110112200D01*
X154629285Y-110112200D02*
X154534047Y-110159819D01*
X154534047Y-110159819D02*
X154248333Y-110159819D01*
X154248333Y-110159819D02*
X154153095Y-110112200D01*
X154153095Y-110112200D02*
X154105476Y-110064580D01*
X126683333Y-103334819D02*
X126350000Y-102858628D01*
X126111905Y-103334819D02*
X126111905Y-102334819D01*
X126111905Y-102334819D02*
X126492857Y-102334819D01*
X126492857Y-102334819D02*
X126588095Y-102382438D01*
X126588095Y-102382438D02*
X126635714Y-102430057D01*
X126635714Y-102430057D02*
X126683333Y-102525295D01*
X126683333Y-102525295D02*
X126683333Y-102668152D01*
X126683333Y-102668152D02*
X126635714Y-102763390D01*
X126635714Y-102763390D02*
X126588095Y-102811009D01*
X126588095Y-102811009D02*
X126492857Y-102858628D01*
X126492857Y-102858628D02*
X126111905Y-102858628D01*
X127064286Y-102430057D02*
X127111905Y-102382438D01*
X127111905Y-102382438D02*
X127207143Y-102334819D01*
X127207143Y-102334819D02*
X127445238Y-102334819D01*
X127445238Y-102334819D02*
X127540476Y-102382438D01*
X127540476Y-102382438D02*
X127588095Y-102430057D01*
X127588095Y-102430057D02*
X127635714Y-102525295D01*
X127635714Y-102525295D02*
X127635714Y-102620533D01*
X127635714Y-102620533D02*
X127588095Y-102763390D01*
X127588095Y-102763390D02*
X127016667Y-103334819D01*
X127016667Y-103334819D02*
X127635714Y-103334819D01*
X153983333Y-111469580D02*
X153935714Y-111517200D01*
X153935714Y-111517200D02*
X153792857Y-111564819D01*
X153792857Y-111564819D02*
X153697619Y-111564819D01*
X153697619Y-111564819D02*
X153554762Y-111517200D01*
X153554762Y-111517200D02*
X153459524Y-111421961D01*
X153459524Y-111421961D02*
X153411905Y-111326723D01*
X153411905Y-111326723D02*
X153364286Y-111136247D01*
X153364286Y-111136247D02*
X153364286Y-110993390D01*
X153364286Y-110993390D02*
X153411905Y-110802914D01*
X153411905Y-110802914D02*
X153459524Y-110707676D01*
X153459524Y-110707676D02*
X153554762Y-110612438D01*
X153554762Y-110612438D02*
X153697619Y-110564819D01*
X153697619Y-110564819D02*
X153792857Y-110564819D01*
X153792857Y-110564819D02*
X153935714Y-110612438D01*
X153935714Y-110612438D02*
X153983333Y-110660057D01*
X154888095Y-110564819D02*
X154411905Y-110564819D01*
X154411905Y-110564819D02*
X154364286Y-111041009D01*
X154364286Y-111041009D02*
X154411905Y-110993390D01*
X154411905Y-110993390D02*
X154507143Y-110945771D01*
X154507143Y-110945771D02*
X154745238Y-110945771D01*
X154745238Y-110945771D02*
X154840476Y-110993390D01*
X154840476Y-110993390D02*
X154888095Y-111041009D01*
X154888095Y-111041009D02*
X154935714Y-111136247D01*
X154935714Y-111136247D02*
X154935714Y-111374342D01*
X154935714Y-111374342D02*
X154888095Y-111469580D01*
X154888095Y-111469580D02*
X154840476Y-111517200D01*
X154840476Y-111517200D02*
X154745238Y-111564819D01*
X154745238Y-111564819D02*
X154507143Y-111564819D01*
X154507143Y-111564819D02*
X154411905Y-111517200D01*
X154411905Y-111517200D02*
X154364286Y-111469580D01*
X160364819Y-100573333D02*
X161079104Y-100573333D01*
X161079104Y-100573333D02*
X161221961Y-100620952D01*
X161221961Y-100620952D02*
X161317200Y-100716190D01*
X161317200Y-100716190D02*
X161364819Y-100859047D01*
X161364819Y-100859047D02*
X161364819Y-100954285D01*
X160364819Y-99620952D02*
X160364819Y-100097142D01*
X160364819Y-100097142D02*
X160841009Y-100144761D01*
X160841009Y-100144761D02*
X160793390Y-100097142D01*
X160793390Y-100097142D02*
X160745771Y-100001904D01*
X160745771Y-100001904D02*
X160745771Y-99763809D01*
X160745771Y-99763809D02*
X160793390Y-99668571D01*
X160793390Y-99668571D02*
X160841009Y-99620952D01*
X160841009Y-99620952D02*
X160936247Y-99573333D01*
X160936247Y-99573333D02*
X161174342Y-99573333D01*
X161174342Y-99573333D02*
X161269580Y-99620952D01*
X161269580Y-99620952D02*
X161317200Y-99668571D01*
X161317200Y-99668571D02*
X161364819Y-99763809D01*
X161364819Y-99763809D02*
X161364819Y-100001904D01*
X161364819Y-100001904D02*
X161317200Y-100097142D01*
X161317200Y-100097142D02*
X161269580Y-100144761D01*
X163938333Y-106469580D02*
X163890714Y-106517200D01*
X163890714Y-106517200D02*
X163747857Y-106564819D01*
X163747857Y-106564819D02*
X163652619Y-106564819D01*
X163652619Y-106564819D02*
X163509762Y-106517200D01*
X163509762Y-106517200D02*
X163414524Y-106421961D01*
X163414524Y-106421961D02*
X163366905Y-106326723D01*
X163366905Y-106326723D02*
X163319286Y-106136247D01*
X163319286Y-106136247D02*
X163319286Y-105993390D01*
X163319286Y-105993390D02*
X163366905Y-105802914D01*
X163366905Y-105802914D02*
X163414524Y-105707676D01*
X163414524Y-105707676D02*
X163509762Y-105612438D01*
X163509762Y-105612438D02*
X163652619Y-105564819D01*
X163652619Y-105564819D02*
X163747857Y-105564819D01*
X163747857Y-105564819D02*
X163890714Y-105612438D01*
X163890714Y-105612438D02*
X163938333Y-105660057D01*
X164509762Y-105993390D02*
X164414524Y-105945771D01*
X164414524Y-105945771D02*
X164366905Y-105898152D01*
X164366905Y-105898152D02*
X164319286Y-105802914D01*
X164319286Y-105802914D02*
X164319286Y-105755295D01*
X164319286Y-105755295D02*
X164366905Y-105660057D01*
X164366905Y-105660057D02*
X164414524Y-105612438D01*
X164414524Y-105612438D02*
X164509762Y-105564819D01*
X164509762Y-105564819D02*
X164700238Y-105564819D01*
X164700238Y-105564819D02*
X164795476Y-105612438D01*
X164795476Y-105612438D02*
X164843095Y-105660057D01*
X164843095Y-105660057D02*
X164890714Y-105755295D01*
X164890714Y-105755295D02*
X164890714Y-105802914D01*
X164890714Y-105802914D02*
X164843095Y-105898152D01*
X164843095Y-105898152D02*
X164795476Y-105945771D01*
X164795476Y-105945771D02*
X164700238Y-105993390D01*
X164700238Y-105993390D02*
X164509762Y-105993390D01*
X164509762Y-105993390D02*
X164414524Y-106041009D01*
X164414524Y-106041009D02*
X164366905Y-106088628D01*
X164366905Y-106088628D02*
X164319286Y-106183866D01*
X164319286Y-106183866D02*
X164319286Y-106374342D01*
X164319286Y-106374342D02*
X164366905Y-106469580D01*
X164366905Y-106469580D02*
X164414524Y-106517200D01*
X164414524Y-106517200D02*
X164509762Y-106564819D01*
X164509762Y-106564819D02*
X164700238Y-106564819D01*
X164700238Y-106564819D02*
X164795476Y-106517200D01*
X164795476Y-106517200D02*
X164843095Y-106469580D01*
X164843095Y-106469580D02*
X164890714Y-106374342D01*
X164890714Y-106374342D02*
X164890714Y-106183866D01*
X164890714Y-106183866D02*
X164843095Y-106088628D01*
X164843095Y-106088628D02*
X164795476Y-106041009D01*
X164795476Y-106041009D02*
X164700238Y-105993390D01*
X162043333Y-97394819D02*
X161710000Y-96918628D01*
X161471905Y-97394819D02*
X161471905Y-96394819D01*
X161471905Y-96394819D02*
X161852857Y-96394819D01*
X161852857Y-96394819D02*
X161948095Y-96442438D01*
X161948095Y-96442438D02*
X161995714Y-96490057D01*
X161995714Y-96490057D02*
X162043333Y-96585295D01*
X162043333Y-96585295D02*
X162043333Y-96728152D01*
X162043333Y-96728152D02*
X161995714Y-96823390D01*
X161995714Y-96823390D02*
X161948095Y-96871009D01*
X161948095Y-96871009D02*
X161852857Y-96918628D01*
X161852857Y-96918628D02*
X161471905Y-96918628D01*
X162376667Y-96394819D02*
X163043333Y-96394819D01*
X163043333Y-96394819D02*
X162614762Y-97394819D01*
X153808333Y-96634819D02*
X153475000Y-96158628D01*
X153236905Y-96634819D02*
X153236905Y-95634819D01*
X153236905Y-95634819D02*
X153617857Y-95634819D01*
X153617857Y-95634819D02*
X153713095Y-95682438D01*
X153713095Y-95682438D02*
X153760714Y-95730057D01*
X153760714Y-95730057D02*
X153808333Y-95825295D01*
X153808333Y-95825295D02*
X153808333Y-95968152D01*
X153808333Y-95968152D02*
X153760714Y-96063390D01*
X153760714Y-96063390D02*
X153713095Y-96111009D01*
X153713095Y-96111009D02*
X153617857Y-96158628D01*
X153617857Y-96158628D02*
X153236905Y-96158628D01*
X154665476Y-95634819D02*
X154475000Y-95634819D01*
X154475000Y-95634819D02*
X154379762Y-95682438D01*
X154379762Y-95682438D02*
X154332143Y-95730057D01*
X154332143Y-95730057D02*
X154236905Y-95872914D01*
X154236905Y-95872914D02*
X154189286Y-96063390D01*
X154189286Y-96063390D02*
X154189286Y-96444342D01*
X154189286Y-96444342D02*
X154236905Y-96539580D01*
X154236905Y-96539580D02*
X154284524Y-96587200D01*
X154284524Y-96587200D02*
X154379762Y-96634819D01*
X154379762Y-96634819D02*
X154570238Y-96634819D01*
X154570238Y-96634819D02*
X154665476Y-96587200D01*
X154665476Y-96587200D02*
X154713095Y-96539580D01*
X154713095Y-96539580D02*
X154760714Y-96444342D01*
X154760714Y-96444342D02*
X154760714Y-96206247D01*
X154760714Y-96206247D02*
X154713095Y-96111009D01*
X154713095Y-96111009D02*
X154665476Y-96063390D01*
X154665476Y-96063390D02*
X154570238Y-96015771D01*
X154570238Y-96015771D02*
X154379762Y-96015771D01*
X154379762Y-96015771D02*
X154284524Y-96063390D01*
X154284524Y-96063390D02*
X154236905Y-96111009D01*
X154236905Y-96111009D02*
X154189286Y-96206247D01*
X126223333Y-104509580D02*
X126175714Y-104557200D01*
X126175714Y-104557200D02*
X126032857Y-104604819D01*
X126032857Y-104604819D02*
X125937619Y-104604819D01*
X125937619Y-104604819D02*
X125794762Y-104557200D01*
X125794762Y-104557200D02*
X125699524Y-104461961D01*
X125699524Y-104461961D02*
X125651905Y-104366723D01*
X125651905Y-104366723D02*
X125604286Y-104176247D01*
X125604286Y-104176247D02*
X125604286Y-104033390D01*
X125604286Y-104033390D02*
X125651905Y-103842914D01*
X125651905Y-103842914D02*
X125699524Y-103747676D01*
X125699524Y-103747676D02*
X125794762Y-103652438D01*
X125794762Y-103652438D02*
X125937619Y-103604819D01*
X125937619Y-103604819D02*
X126032857Y-103604819D01*
X126032857Y-103604819D02*
X126175714Y-103652438D01*
X126175714Y-103652438D02*
X126223333Y-103700057D01*
X126604286Y-103700057D02*
X126651905Y-103652438D01*
X126651905Y-103652438D02*
X126747143Y-103604819D01*
X126747143Y-103604819D02*
X126985238Y-103604819D01*
X126985238Y-103604819D02*
X127080476Y-103652438D01*
X127080476Y-103652438D02*
X127128095Y-103700057D01*
X127128095Y-103700057D02*
X127175714Y-103795295D01*
X127175714Y-103795295D02*
X127175714Y-103890533D01*
X127175714Y-103890533D02*
X127128095Y-104033390D01*
X127128095Y-104033390D02*
X126556667Y-104604819D01*
X126556667Y-104604819D02*
X127175714Y-104604819D01*
X150518333Y-95679580D02*
X150470714Y-95727200D01*
X150470714Y-95727200D02*
X150327857Y-95774819D01*
X150327857Y-95774819D02*
X150232619Y-95774819D01*
X150232619Y-95774819D02*
X150089762Y-95727200D01*
X150089762Y-95727200D02*
X149994524Y-95631961D01*
X149994524Y-95631961D02*
X149946905Y-95536723D01*
X149946905Y-95536723D02*
X149899286Y-95346247D01*
X149899286Y-95346247D02*
X149899286Y-95203390D01*
X149899286Y-95203390D02*
X149946905Y-95012914D01*
X149946905Y-95012914D02*
X149994524Y-94917676D01*
X149994524Y-94917676D02*
X150089762Y-94822438D01*
X150089762Y-94822438D02*
X150232619Y-94774819D01*
X150232619Y-94774819D02*
X150327857Y-94774819D01*
X150327857Y-94774819D02*
X150470714Y-94822438D01*
X150470714Y-94822438D02*
X150518333Y-94870057D01*
X151375476Y-94774819D02*
X151185000Y-94774819D01*
X151185000Y-94774819D02*
X151089762Y-94822438D01*
X151089762Y-94822438D02*
X151042143Y-94870057D01*
X151042143Y-94870057D02*
X150946905Y-95012914D01*
X150946905Y-95012914D02*
X150899286Y-95203390D01*
X150899286Y-95203390D02*
X150899286Y-95584342D01*
X150899286Y-95584342D02*
X150946905Y-95679580D01*
X150946905Y-95679580D02*
X150994524Y-95727200D01*
X150994524Y-95727200D02*
X151089762Y-95774819D01*
X151089762Y-95774819D02*
X151280238Y-95774819D01*
X151280238Y-95774819D02*
X151375476Y-95727200D01*
X151375476Y-95727200D02*
X151423095Y-95679580D01*
X151423095Y-95679580D02*
X151470714Y-95584342D01*
X151470714Y-95584342D02*
X151470714Y-95346247D01*
X151470714Y-95346247D02*
X151423095Y-95251009D01*
X151423095Y-95251009D02*
X151375476Y-95203390D01*
X151375476Y-95203390D02*
X151280238Y-95155771D01*
X151280238Y-95155771D02*
X151089762Y-95155771D01*
X151089762Y-95155771D02*
X150994524Y-95203390D01*
X150994524Y-95203390D02*
X150946905Y-95251009D01*
X150946905Y-95251009D02*
X150899286Y-95346247D01*
X122983333Y-109104819D02*
X122650000Y-108628628D01*
X122411905Y-109104819D02*
X122411905Y-108104819D01*
X122411905Y-108104819D02*
X122792857Y-108104819D01*
X122792857Y-108104819D02*
X122888095Y-108152438D01*
X122888095Y-108152438D02*
X122935714Y-108200057D01*
X122935714Y-108200057D02*
X122983333Y-108295295D01*
X122983333Y-108295295D02*
X122983333Y-108438152D01*
X122983333Y-108438152D02*
X122935714Y-108533390D01*
X122935714Y-108533390D02*
X122888095Y-108581009D01*
X122888095Y-108581009D02*
X122792857Y-108628628D01*
X122792857Y-108628628D02*
X122411905Y-108628628D01*
X123935714Y-109104819D02*
X123364286Y-109104819D01*
X123650000Y-109104819D02*
X123650000Y-108104819D01*
X123650000Y-108104819D02*
X123554762Y-108247676D01*
X123554762Y-108247676D02*
X123459524Y-108342914D01*
X123459524Y-108342914D02*
X123364286Y-108390533D01*
X164714405Y-97424819D02*
X164714405Y-96424819D01*
X164714405Y-96424819D02*
X164952500Y-96424819D01*
X164952500Y-96424819D02*
X165095357Y-96472438D01*
X165095357Y-96472438D02*
X165190595Y-96567676D01*
X165190595Y-96567676D02*
X165238214Y-96662914D01*
X165238214Y-96662914D02*
X165285833Y-96853390D01*
X165285833Y-96853390D02*
X165285833Y-96996247D01*
X165285833Y-96996247D02*
X165238214Y-97186723D01*
X165238214Y-97186723D02*
X165190595Y-97281961D01*
X165190595Y-97281961D02*
X165095357Y-97377200D01*
X165095357Y-97377200D02*
X164952500Y-97424819D01*
X164952500Y-97424819D02*
X164714405Y-97424819D01*
X165666786Y-96520057D02*
X165714405Y-96472438D01*
X165714405Y-96472438D02*
X165809643Y-96424819D01*
X165809643Y-96424819D02*
X166047738Y-96424819D01*
X166047738Y-96424819D02*
X166142976Y-96472438D01*
X166142976Y-96472438D02*
X166190595Y-96520057D01*
X166190595Y-96520057D02*
X166238214Y-96615295D01*
X166238214Y-96615295D02*
X166238214Y-96710533D01*
X166238214Y-96710533D02*
X166190595Y-96853390D01*
X166190595Y-96853390D02*
X165619167Y-97424819D01*
X165619167Y-97424819D02*
X166238214Y-97424819D01*
X125910595Y-104934819D02*
X125910595Y-105744342D01*
X125910595Y-105744342D02*
X125958214Y-105839580D01*
X125958214Y-105839580D02*
X126005833Y-105887200D01*
X126005833Y-105887200D02*
X126101071Y-105934819D01*
X126101071Y-105934819D02*
X126291547Y-105934819D01*
X126291547Y-105934819D02*
X126386785Y-105887200D01*
X126386785Y-105887200D02*
X126434404Y-105839580D01*
X126434404Y-105839580D02*
X126482023Y-105744342D01*
X126482023Y-105744342D02*
X126482023Y-104934819D01*
X126910595Y-105030057D02*
X126958214Y-104982438D01*
X126958214Y-104982438D02*
X127053452Y-104934819D01*
X127053452Y-104934819D02*
X127291547Y-104934819D01*
X127291547Y-104934819D02*
X127386785Y-104982438D01*
X127386785Y-104982438D02*
X127434404Y-105030057D01*
X127434404Y-105030057D02*
X127482023Y-105125295D01*
X127482023Y-105125295D02*
X127482023Y-105220533D01*
X127482023Y-105220533D02*
X127434404Y-105363390D01*
X127434404Y-105363390D02*
X126862976Y-105934819D01*
X126862976Y-105934819D02*
X127482023Y-105934819D01*
X120036666Y-102264819D02*
X120036666Y-102979104D01*
X120036666Y-102979104D02*
X119989047Y-103121961D01*
X119989047Y-103121961D02*
X119893809Y-103217200D01*
X119893809Y-103217200D02*
X119750952Y-103264819D01*
X119750952Y-103264819D02*
X119655714Y-103264819D01*
X120465238Y-102360057D02*
X120512857Y-102312438D01*
X120512857Y-102312438D02*
X120608095Y-102264819D01*
X120608095Y-102264819D02*
X120846190Y-102264819D01*
X120846190Y-102264819D02*
X120941428Y-102312438D01*
X120941428Y-102312438D02*
X120989047Y-102360057D01*
X120989047Y-102360057D02*
X121036666Y-102455295D01*
X121036666Y-102455295D02*
X121036666Y-102550533D01*
X121036666Y-102550533D02*
X120989047Y-102693390D01*
X120989047Y-102693390D02*
X120417619Y-103264819D01*
X120417619Y-103264819D02*
X121036666Y-103264819D01*
X167174580Y-95536666D02*
X167222200Y-95584285D01*
X167222200Y-95584285D02*
X167269819Y-95727142D01*
X167269819Y-95727142D02*
X167269819Y-95822380D01*
X167269819Y-95822380D02*
X167222200Y-95965237D01*
X167222200Y-95965237D02*
X167126961Y-96060475D01*
X167126961Y-96060475D02*
X167031723Y-96108094D01*
X167031723Y-96108094D02*
X166841247Y-96155713D01*
X166841247Y-96155713D02*
X166698390Y-96155713D01*
X166698390Y-96155713D02*
X166507914Y-96108094D01*
X166507914Y-96108094D02*
X166412676Y-96060475D01*
X166412676Y-96060475D02*
X166317438Y-95965237D01*
X166317438Y-95965237D02*
X166269819Y-95822380D01*
X166269819Y-95822380D02*
X166269819Y-95727142D01*
X166269819Y-95727142D02*
X166317438Y-95584285D01*
X166317438Y-95584285D02*
X166365057Y-95536666D01*
X166603152Y-94679523D02*
X167269819Y-94679523D01*
X166222200Y-94917618D02*
X166936485Y-95155713D01*
X166936485Y-95155713D02*
X166936485Y-94536666D01*
X163228333Y-100239580D02*
X163180714Y-100287200D01*
X163180714Y-100287200D02*
X163037857Y-100334819D01*
X163037857Y-100334819D02*
X162942619Y-100334819D01*
X162942619Y-100334819D02*
X162799762Y-100287200D01*
X162799762Y-100287200D02*
X162704524Y-100191961D01*
X162704524Y-100191961D02*
X162656905Y-100096723D01*
X162656905Y-100096723D02*
X162609286Y-99906247D01*
X162609286Y-99906247D02*
X162609286Y-99763390D01*
X162609286Y-99763390D02*
X162656905Y-99572914D01*
X162656905Y-99572914D02*
X162704524Y-99477676D01*
X162704524Y-99477676D02*
X162799762Y-99382438D01*
X162799762Y-99382438D02*
X162942619Y-99334819D01*
X162942619Y-99334819D02*
X163037857Y-99334819D01*
X163037857Y-99334819D02*
X163180714Y-99382438D01*
X163180714Y-99382438D02*
X163228333Y-99430057D01*
X163704524Y-100334819D02*
X163895000Y-100334819D01*
X163895000Y-100334819D02*
X163990238Y-100287200D01*
X163990238Y-100287200D02*
X164037857Y-100239580D01*
X164037857Y-100239580D02*
X164133095Y-100096723D01*
X164133095Y-100096723D02*
X164180714Y-99906247D01*
X164180714Y-99906247D02*
X164180714Y-99525295D01*
X164180714Y-99525295D02*
X164133095Y-99430057D01*
X164133095Y-99430057D02*
X164085476Y-99382438D01*
X164085476Y-99382438D02*
X163990238Y-99334819D01*
X163990238Y-99334819D02*
X163799762Y-99334819D01*
X163799762Y-99334819D02*
X163704524Y-99382438D01*
X163704524Y-99382438D02*
X163656905Y-99430057D01*
X163656905Y-99430057D02*
X163609286Y-99525295D01*
X163609286Y-99525295D02*
X163609286Y-99763390D01*
X163609286Y-99763390D02*
X163656905Y-99858628D01*
X163656905Y-99858628D02*
X163704524Y-99906247D01*
X163704524Y-99906247D02*
X163799762Y-99953866D01*
X163799762Y-99953866D02*
X163990238Y-99953866D01*
X163990238Y-99953866D02*
X164085476Y-99906247D01*
X164085476Y-99906247D02*
X164133095Y-99858628D01*
X164133095Y-99858628D02*
X164180714Y-99763390D01*
X153053095Y-117589819D02*
X153053095Y-118399342D01*
X153053095Y-118399342D02*
X153100714Y-118494580D01*
X153100714Y-118494580D02*
X153148333Y-118542200D01*
X153148333Y-118542200D02*
X153243571Y-118589819D01*
X153243571Y-118589819D02*
X153434047Y-118589819D01*
X153434047Y-118589819D02*
X153529285Y-118542200D01*
X153529285Y-118542200D02*
X153576904Y-118494580D01*
X153576904Y-118494580D02*
X153624523Y-118399342D01*
X153624523Y-118399342D02*
X153624523Y-117589819D01*
X154529285Y-117923152D02*
X154529285Y-118589819D01*
X154291190Y-117542200D02*
X154053095Y-118256485D01*
X154053095Y-118256485D02*
X154672142Y-118256485D01*
X159546666Y-111024819D02*
X159546666Y-111739104D01*
X159546666Y-111739104D02*
X159499047Y-111881961D01*
X159499047Y-111881961D02*
X159403809Y-111977200D01*
X159403809Y-111977200D02*
X159260952Y-112024819D01*
X159260952Y-112024819D02*
X159165714Y-112024819D01*
X160451428Y-111358152D02*
X160451428Y-112024819D01*
X160213333Y-110977200D02*
X159975238Y-111691485D01*
X159975238Y-111691485D02*
X160594285Y-111691485D01*
X117843333Y-96269580D02*
X117795714Y-96317200D01*
X117795714Y-96317200D02*
X117652857Y-96364819D01*
X117652857Y-96364819D02*
X117557619Y-96364819D01*
X117557619Y-96364819D02*
X117414762Y-96317200D01*
X117414762Y-96317200D02*
X117319524Y-96221961D01*
X117319524Y-96221961D02*
X117271905Y-96126723D01*
X117271905Y-96126723D02*
X117224286Y-95936247D01*
X117224286Y-95936247D02*
X117224286Y-95793390D01*
X117224286Y-95793390D02*
X117271905Y-95602914D01*
X117271905Y-95602914D02*
X117319524Y-95507676D01*
X117319524Y-95507676D02*
X117414762Y-95412438D01*
X117414762Y-95412438D02*
X117557619Y-95364819D01*
X117557619Y-95364819D02*
X117652857Y-95364819D01*
X117652857Y-95364819D02*
X117795714Y-95412438D01*
X117795714Y-95412438D02*
X117843333Y-95460057D01*
X118795714Y-96364819D02*
X118224286Y-96364819D01*
X118510000Y-96364819D02*
X118510000Y-95364819D01*
X118510000Y-95364819D02*
X118414762Y-95507676D01*
X118414762Y-95507676D02*
X118319524Y-95602914D01*
X118319524Y-95602914D02*
X118224286Y-95650533D01*
X163668333Y-103384819D02*
X163335000Y-102908628D01*
X163096905Y-103384819D02*
X163096905Y-102384819D01*
X163096905Y-102384819D02*
X163477857Y-102384819D01*
X163477857Y-102384819D02*
X163573095Y-102432438D01*
X163573095Y-102432438D02*
X163620714Y-102480057D01*
X163620714Y-102480057D02*
X163668333Y-102575295D01*
X163668333Y-102575295D02*
X163668333Y-102718152D01*
X163668333Y-102718152D02*
X163620714Y-102813390D01*
X163620714Y-102813390D02*
X163573095Y-102861009D01*
X163573095Y-102861009D02*
X163477857Y-102908628D01*
X163477857Y-102908628D02*
X163096905Y-102908628D01*
X164001667Y-102384819D02*
X164620714Y-102384819D01*
X164620714Y-102384819D02*
X164287381Y-102765771D01*
X164287381Y-102765771D02*
X164430238Y-102765771D01*
X164430238Y-102765771D02*
X164525476Y-102813390D01*
X164525476Y-102813390D02*
X164573095Y-102861009D01*
X164573095Y-102861009D02*
X164620714Y-102956247D01*
X164620714Y-102956247D02*
X164620714Y-103194342D01*
X164620714Y-103194342D02*
X164573095Y-103289580D01*
X164573095Y-103289580D02*
X164525476Y-103337200D01*
X164525476Y-103337200D02*
X164430238Y-103384819D01*
X164430238Y-103384819D02*
X164144524Y-103384819D01*
X164144524Y-103384819D02*
X164049286Y-103337200D01*
X164049286Y-103337200D02*
X164001667Y-103289580D01*
X123983333Y-96629580D02*
X123935714Y-96677200D01*
X123935714Y-96677200D02*
X123792857Y-96724819D01*
X123792857Y-96724819D02*
X123697619Y-96724819D01*
X123697619Y-96724819D02*
X123554762Y-96677200D01*
X123554762Y-96677200D02*
X123459524Y-96581961D01*
X123459524Y-96581961D02*
X123411905Y-96486723D01*
X123411905Y-96486723D02*
X123364286Y-96296247D01*
X123364286Y-96296247D02*
X123364286Y-96153390D01*
X123364286Y-96153390D02*
X123411905Y-95962914D01*
X123411905Y-95962914D02*
X123459524Y-95867676D01*
X123459524Y-95867676D02*
X123554762Y-95772438D01*
X123554762Y-95772438D02*
X123697619Y-95724819D01*
X123697619Y-95724819D02*
X123792857Y-95724819D01*
X123792857Y-95724819D02*
X123935714Y-95772438D01*
X123935714Y-95772438D02*
X123983333Y-95820057D01*
X124316667Y-95724819D02*
X124935714Y-95724819D01*
X124935714Y-95724819D02*
X124602381Y-96105771D01*
X124602381Y-96105771D02*
X124745238Y-96105771D01*
X124745238Y-96105771D02*
X124840476Y-96153390D01*
X124840476Y-96153390D02*
X124888095Y-96201009D01*
X124888095Y-96201009D02*
X124935714Y-96296247D01*
X124935714Y-96296247D02*
X124935714Y-96534342D01*
X124935714Y-96534342D02*
X124888095Y-96629580D01*
X124888095Y-96629580D02*
X124840476Y-96677200D01*
X124840476Y-96677200D02*
X124745238Y-96724819D01*
X124745238Y-96724819D02*
X124459524Y-96724819D01*
X124459524Y-96724819D02*
X124364286Y-96677200D01*
X124364286Y-96677200D02*
X124316667Y-96629580D01*
X127919819Y-113716904D02*
X128729342Y-113716904D01*
X128729342Y-113716904D02*
X128824580Y-113669285D01*
X128824580Y-113669285D02*
X128872200Y-113621666D01*
X128872200Y-113621666D02*
X128919819Y-113526428D01*
X128919819Y-113526428D02*
X128919819Y-113335952D01*
X128919819Y-113335952D02*
X128872200Y-113240714D01*
X128872200Y-113240714D02*
X128824580Y-113193095D01*
X128824580Y-113193095D02*
X128729342Y-113145476D01*
X128729342Y-113145476D02*
X127919819Y-113145476D01*
X128919819Y-112145476D02*
X128919819Y-112716904D01*
X128919819Y-112431190D02*
X127919819Y-112431190D01*
X127919819Y-112431190D02*
X128062676Y-112526428D01*
X128062676Y-112526428D02*
X128157914Y-112621666D01*
X128157914Y-112621666D02*
X128205533Y-112716904D01*
%TO.C,D1*%
D11*
X155947500Y-96735000D02*
X155947500Y-98205000D01*
X155947500Y-98205000D02*
X158232500Y-98205000D01*
X158232500Y-96735000D02*
X155947500Y-96735000D01*
%TO.C,C7*%
X157574420Y-102270000D02*
X157855580Y-102270000D01*
X157574420Y-103290000D02*
X157855580Y-103290000D01*
%TO.C,J3*%
X159060000Y-104080000D02*
X160440000Y-104080000D01*
X159060000Y-105460000D02*
X159060000Y-104080000D01*
X159060000Y-106730000D02*
X159060000Y-109380000D01*
X159060000Y-106730000D02*
X161820000Y-106730000D01*
X159060000Y-109380000D02*
X161820000Y-109380000D01*
X161820000Y-106730000D02*
X161820000Y-109380000D01*
%TO.C,SW1*%
X121480000Y-97340000D02*
X121480000Y-97740000D01*
X121480000Y-98680000D02*
X121480000Y-100740000D01*
X121480000Y-102080000D02*
X121480000Y-101680000D01*
X126220000Y-97340000D02*
X121480000Y-97340000D01*
X126220000Y-97340000D02*
X126220000Y-97740000D01*
X126220000Y-98680000D02*
X126220000Y-100740000D01*
X126220000Y-102080000D02*
X121480000Y-102080000D01*
X126220000Y-102080000D02*
X126220000Y-101680000D01*
%TO.C,J1*%
X104250000Y-99660000D02*
X104250000Y-101660000D01*
X104250000Y-101660000D02*
X105750000Y-101410000D01*
X104250000Y-104660000D02*
X104250000Y-106660000D01*
X104250000Y-106660000D02*
X105750000Y-106410000D01*
X105750000Y-99910000D02*
X104250000Y-99660000D01*
X105750000Y-101410000D02*
X105750000Y-99910000D01*
X105750000Y-104910000D02*
X104250000Y-104660000D01*
X105750000Y-106410000D02*
X105750000Y-104910000D01*
X116670000Y-100660000D02*
X117270000Y-100360000D01*
X117270000Y-100360000D02*
X117270000Y-100960000D01*
X117270000Y-100960000D02*
X116670000Y-100660000D01*
X105750000Y-97050000D02*
X107550000Y-97050000D01*
X107550000Y-109270000D01*
X105750000Y-109270000D01*
X105750000Y-97050000D01*
X104250000Y-97050000D02*
X116470000Y-97050000D01*
X116470000Y-109270000D01*
X104250000Y-109270000D01*
X104250000Y-97050000D01*
%TO.C,U3*%
X151855000Y-103745000D02*
X155975000Y-103745000D01*
X151855000Y-103840000D02*
X151855000Y-103745000D01*
X151855000Y-108865000D02*
X151855000Y-108770000D01*
X155975000Y-103745000D02*
X155975000Y-103840000D01*
X155975000Y-108770000D02*
X155975000Y-108865000D01*
X155975000Y-108865000D02*
X151855000Y-108865000D01*
X156755000Y-109105000D02*
X156275000Y-109105000D01*
X156515000Y-108775000D01*
X156755000Y-109105000D01*
G36*
X156755000Y-109105000D02*
G01*
X156275000Y-109105000D01*
X156515000Y-108775000D01*
X156755000Y-109105000D01*
G37*
%TO.C,R2*%
X127887500Y-104152258D02*
X127887500Y-103677742D01*
X128932500Y-104152258D02*
X128932500Y-103677742D01*
%TO.C,C5*%
X156538748Y-109985000D02*
X157061252Y-109985000D01*
X156538748Y-111455000D02*
X157061252Y-111455000D01*
%TO.C,J5*%
X149530000Y-98860000D02*
X149530000Y-101620000D01*
X157260000Y-98860000D02*
X149530000Y-98860000D01*
X157260000Y-98860000D02*
X157260000Y-101620000D01*
X157260000Y-101620000D02*
X149530000Y-101620000D01*
X158530000Y-98860000D02*
X159910000Y-98860000D01*
X159910000Y-98860000D02*
X159910000Y-100240000D01*
%TO.C,C8*%
X163964420Y-107030000D02*
X164245580Y-107030000D01*
X163964420Y-108050000D02*
X164245580Y-108050000D01*
%TO.C,R7*%
X161972742Y-97847500D02*
X162447258Y-97847500D01*
X161972742Y-98892500D02*
X162447258Y-98892500D01*
%TO.C,R6*%
X153737742Y-97087500D02*
X154212258Y-97087500D01*
X153737742Y-98132500D02*
X154212258Y-98132500D01*
%TO.C,C2*%
X123935580Y-103630000D02*
X123654420Y-103630000D01*
X123935580Y-104650000D02*
X123654420Y-104650000D01*
%TO.C,C6*%
X150544420Y-96240000D02*
X150825580Y-96240000D01*
X150544420Y-97260000D02*
X150825580Y-97260000D01*
%TO.C,R1*%
X122707500Y-106822258D02*
X122707500Y-106347742D01*
X123752500Y-106822258D02*
X123752500Y-106347742D01*
%TO.C,D2*%
X163967500Y-97665000D02*
X163967500Y-99135000D01*
X163967500Y-99135000D02*
X166252500Y-99135000D01*
X166252500Y-97665000D02*
X163967500Y-97665000D01*
%TO.C,U2*%
X125762500Y-106320000D02*
X127582500Y-106320000D01*
X125762500Y-106370000D02*
X125762500Y-106320000D01*
X125762500Y-109440000D02*
X125762500Y-109390000D01*
X127582500Y-106320000D02*
X127582500Y-106370000D01*
X127582500Y-107490000D02*
X127582500Y-108270000D01*
X127582500Y-109390000D02*
X127582500Y-109440000D01*
X127582500Y-109440000D02*
X125762500Y-109440000D01*
X125222500Y-106370000D02*
X124982500Y-106040000D01*
X125462500Y-106040000D01*
X125222500Y-106370000D01*
G36*
X125222500Y-106370000D02*
G01*
X124982500Y-106040000D01*
X125462500Y-106040000D01*
X125222500Y-106370000D01*
G37*
%TO.C,J2*%
X118990000Y-103810000D02*
X120370000Y-103810000D01*
X118990000Y-105190000D02*
X118990000Y-103810000D01*
X118990000Y-106460000D02*
X118990000Y-111650000D01*
X118990000Y-106460000D02*
X121750000Y-106460000D01*
X118990000Y-111650000D02*
X121750000Y-111650000D01*
X121750000Y-106460000D02*
X121750000Y-111650000D01*
%TO.C,C4*%
X164679420Y-94910000D02*
X164960580Y-94910000D01*
X164679420Y-95930000D02*
X164960580Y-95930000D01*
%TO.C,C9*%
X163254420Y-100800000D02*
X163535580Y-100800000D01*
X163254420Y-101820000D02*
X163535580Y-101820000D01*
%TO.C,U4*%
X151755000Y-112175000D02*
X155875000Y-112175000D01*
X151755000Y-112270000D02*
X151755000Y-112175000D01*
X151755000Y-117295000D02*
X151755000Y-117200000D01*
X155875000Y-112175000D02*
X155875000Y-112270000D01*
X155875000Y-117200000D02*
X155875000Y-117295000D01*
X155875000Y-117295000D02*
X151755000Y-117295000D01*
X156655000Y-117535000D02*
X156175000Y-117535000D01*
X156415000Y-117205000D01*
X156655000Y-117535000D01*
G36*
X156655000Y-117535000D02*
G01*
X156175000Y-117535000D01*
X156415000Y-117205000D01*
X156655000Y-117535000D01*
G37*
%TO.C,J4*%
X158500000Y-112570000D02*
X159880000Y-112570000D01*
X158500000Y-113950000D02*
X158500000Y-112570000D01*
X158500000Y-115220000D02*
X158500000Y-117870000D01*
X158500000Y-115220000D02*
X161260000Y-115220000D01*
X158500000Y-117870000D02*
X161260000Y-117870000D01*
X161260000Y-115220000D02*
X161260000Y-117870000D01*
%TO.C,C1*%
X117265000Y-98471252D02*
X117265000Y-97948748D01*
X118735000Y-98471252D02*
X118735000Y-97948748D01*
%TO.C,R3*%
X163597742Y-103837500D02*
X164072258Y-103837500D01*
X163597742Y-104882500D02*
X164072258Y-104882500D01*
%TO.C,C3*%
X126578748Y-95295000D02*
X127101252Y-95295000D01*
X126578748Y-96765000D02*
X127101252Y-96765000D01*
%TO.C,U1*%
X129955000Y-88665000D02*
X129955000Y-94825000D01*
X129955000Y-88665000D02*
X148195000Y-88665000D01*
X129955000Y-113625000D02*
X129955000Y-114405000D01*
X129955000Y-114405000D02*
X130955000Y-114405000D01*
X148195000Y-88665000D02*
X148195000Y-95080000D01*
X148195000Y-113625000D02*
X148195000Y-114405000D01*
X148195000Y-114405000D02*
X147195000Y-114405000D01*
X129950000Y-95550000D02*
X129450000Y-95550000D01*
X129950000Y-95050000D01*
X129950000Y-95550000D01*
G36*
X129950000Y-95550000D02*
G01*
X129450000Y-95550000D01*
X129950000Y-95050000D01*
X129950000Y-95550000D01*
G37*
%TD*%
M02*
