%TF.GenerationSoftware,KiCad,Pcbnew,10.0.1*%
%TF.CreationDate,2026-10-03T22:40:03+05:30*%
%TF.ProjectId,sensor_board,73656e73-6f72-45f6-926f-6172642e6b69,rev?*%
%TF.SameCoordinates,Original*%
%TF.FileFunction,Copper,L1,Top*%
%TF.FilePolarity,Positive*%
%FSLAX46Y46*%
G04 Gerber Fmt 4.6, Leading zero omitted, Abs format (unit mm)*
G04 Created by KiCad (PCBNEW 10.0.1) date 2026-10-03 22:40:03*
%MOMM*%
%LPD*%
G01*
G04 APERTURE LIST*
G04 Aperture macros list*
%AMRoundRect*
0 Rectangle with rounded corners*
0 $1 Rounding radius*
0 $2 $3 $4 $5 $6 $7 $8 $9 X,Y pos of 4 corners*
0 Add a 4 corners polygon primitive as box body*
4,1,4,$2,$3,$4,$5,$6,$7,$8,$9,$2,$3,0*
0 Add four circle primitives for the rounded corners*
1,1,$1+$1,$2,$3*
1,1,$1+$1,$4,$5*
1,1,$1+$1,$6,$7*
1,1,$1+$1,$8,$9*
0 Add four rect primitives between the rounded corners*
20,1,$1+$1,$2,$3,$4,$5,0*
20,1,$1+$1,$4,$5,$6,$7,0*
20,1,$1+$1,$6,$7,$8,$9,0*
20,1,$1+$1,$8,$9,$2,$3,0*%
G04 Aperture macros list end*
%TA.AperFunction,SMDPad,CuDef*%
%ADD10RoundRect,0.218750X-0.218750X-0.256250X0.218750X-0.256250X0.218750X0.256250X-0.218750X0.256250X0*%
%TD*%
%TA.AperFunction,SMDPad,CuDef*%
%ADD11RoundRect,0.225000X-0.225000X-0.250000X0.225000X-0.250000X0.225000X0.250000X-0.225000X0.250000X0*%
%TD*%
%TA.AperFunction,ComponentPad*%
%ADD12R,1.700000X1.700000*%
%TD*%
%TA.AperFunction,ComponentPad*%
%ADD13C,1.700000*%
%TD*%
%TA.AperFunction,SMDPad,CuDef*%
%ADD14R,1.600000X1.400000*%
%TD*%
%TA.AperFunction,ComponentPad*%
%ADD15RoundRect,0.250000X-1.550000X0.750000X-1.550000X-0.750000X1.550000X-0.750000X1.550000X0.750000X0*%
%TD*%
%TA.AperFunction,ComponentPad*%
%ADD16O,3.600000X2.000000*%
%TD*%
%TA.AperFunction,SMDPad,CuDef*%
%ADD17RoundRect,0.150000X0.825000X0.150000X-0.825000X0.150000X-0.825000X-0.150000X0.825000X-0.150000X0*%
%TD*%
%TA.AperFunction,SMDPad,CuDef*%
%ADD18RoundRect,0.200000X0.275000X-0.200000X0.275000X0.200000X-0.275000X0.200000X-0.275000X-0.200000X0*%
%TD*%
%TA.AperFunction,SMDPad,CuDef*%
%ADD19RoundRect,0.250000X-0.250000X-0.475000X0.250000X-0.475000X0.250000X0.475000X-0.250000X0.475000X0*%
%TD*%
%TA.AperFunction,SMDPad,CuDef*%
%ADD20RoundRect,0.200000X-0.200000X-0.275000X0.200000X-0.275000X0.200000X0.275000X-0.200000X0.275000X0*%
%TD*%
%TA.AperFunction,SMDPad,CuDef*%
%ADD21RoundRect,0.225000X0.225000X0.250000X-0.225000X0.250000X-0.225000X-0.250000X0.225000X-0.250000X0*%
%TD*%
%TA.AperFunction,SMDPad,CuDef*%
%ADD22RoundRect,0.150000X-0.512500X-0.150000X0.512500X-0.150000X0.512500X0.150000X-0.512500X0.150000X0*%
%TD*%
%TA.AperFunction,SMDPad,CuDef*%
%ADD23RoundRect,0.250000X0.475000X-0.250000X0.475000X0.250000X-0.475000X0.250000X-0.475000X-0.250000X0*%
%TD*%
%TA.AperFunction,SMDPad,CuDef*%
%ADD24R,1.500000X0.900000*%
%TD*%
%TA.AperFunction,SMDPad,CuDef*%
%ADD25R,0.900000X1.500000*%
%TD*%
%TA.AperFunction,SMDPad,CuDef*%
%ADD26R,1.050000X1.050000*%
%TD*%
%TA.AperFunction,HeatsinkPad*%
%ADD27C,0.600000*%
%TD*%
%TA.AperFunction,HeatsinkPad*%
%ADD28R,4.200000X4.200000*%
%TD*%
%TA.AperFunction,ViaPad*%
%ADD29C,0.600000*%
%TD*%
%TA.AperFunction,Conductor*%
%ADD30C,0.250000*%
%TD*%
G04 APERTURE END LIST*
D10*
%TO.P,D1,1,K_1*%
%TO.N,Net-(D1-K)*%
X156645000Y-97470000D03*
%TO.P,D1,2,A_2*%
%TO.N,/GND*%
X158220000Y-97470000D03*
%TD*%
D11*
%TO.P,C7,1*%
%TO.N,/+3V3*%
X156940000Y-102780000D03*
%TO.P,C7,2*%
%TO.N,/GND*%
X158490000Y-102780000D03*
%TD*%
D12*
%TO.P,J3,1,Pin_1_1*%
%TO.N,Net-(J3-Pin_1)*%
X160440000Y-105460000D03*
D13*
%TO.P,J3,2,Pin_2_2*%
%TO.N,Net-(J3-Pin_2)*%
X160440000Y-108000000D03*
%TD*%
D14*
%TO.P,SW1,1,1_1*%
%TO.N,/PRESS_DIV*%
X127450000Y-101210000D03*
X120250000Y-101210000D03*
%TO.P,SW1,2,2_2*%
%TO.N,/GND*%
X127450000Y-98210000D03*
X120250000Y-98210000D03*
%TD*%
D15*
%TO.P,J1,1,Pin_1_1*%
%TO.N,/+5V_IN*%
X114360000Y-100660000D03*
D16*
%TO.P,J1,2,Pin_2_2*%
%TO.N,/GND*%
X114360000Y-105660000D03*
%TD*%
D17*
%TO.P,U3,1,GND_1*%
%TO.N,/GND*%
X156390000Y-108210000D03*
%TO.P,U3,2,T-_2*%
%TO.N,Net-(J3-Pin_2)*%
X156390000Y-106940000D03*
%TO.P,U3,3,T+_3*%
%TO.N,Net-(J3-Pin_1)*%
X156390000Y-105670000D03*
%TO.P,U3,4,V_{CC}_4*%
%TO.N,/+3V3*%
X156390000Y-104400000D03*
%TO.P,U3,5,SCK_5*%
%TO.N,/SPI_SCK*%
X151440000Y-104400000D03*
%TO.P,U3,6,~{CS}_6*%
%TO.N,/TC1_CS*%
X151440000Y-105670000D03*
%TO.P,U3,7,SO_7*%
%TO.N,/SPI_MISO*%
X151440000Y-106940000D03*
%TO.P,U3,8,NC_8*%
%TO.N,unconnected-(U3-NC-Pad8)*%
X151440000Y-108210000D03*
%TD*%
D18*
%TO.P,R2,1*%
%TO.N,/PRESS_DIV*%
X128410000Y-104740000D03*
%TO.P,R2,2*%
%TO.N,/+3V3*%
X128410000Y-103090000D03*
%TD*%
D19*
%TO.P,C5,1*%
%TO.N,/+3V3*%
X155850000Y-110720000D03*
%TO.P,C5,2*%
%TO.N,/GND*%
X157750000Y-110720000D03*
%TD*%
D12*
%TO.P,J5,1,Pin_1_1*%
%TO.N,/GND*%
X158530000Y-100240000D03*
D13*
%TO.P,J5,2,Pin_2_2*%
%TO.N,/+3V3*%
X155990000Y-100240000D03*
%TO.P,J5,3,Pin_3_3*%
%TO.N,/UART_TX*%
X153450000Y-100240000D03*
%TO.P,J5,4,Pin_4_4*%
%TO.N,/UART_RX*%
X150910000Y-100240000D03*
%TD*%
D11*
%TO.P,C8,1*%
%TO.N,/+3V3*%
X163330000Y-107540000D03*
%TO.P,C8,2*%
%TO.N,/GND*%
X164880000Y-107540000D03*
%TD*%
D20*
%TO.P,R7,1*%
%TO.N,/+3V3*%
X161385000Y-98370000D03*
%TO.P,R7,2*%
%TO.N,Net-(D2-A)*%
X163035000Y-98370000D03*
%TD*%
%TO.P,R6,1*%
%TO.N,/ACT_LED*%
X153150000Y-97610000D03*
%TO.P,R6,2*%
%TO.N,Net-(D1-K)*%
X154800000Y-97610000D03*
%TD*%
D21*
%TO.P,C2,1*%
%TO.N,/+5V_IN*%
X124570000Y-104140000D03*
%TO.P,C2,2*%
%TO.N,/GND*%
X123020000Y-104140000D03*
%TD*%
D11*
%TO.P,C6,1*%
%TO.N,/+3V3*%
X149910000Y-96750000D03*
%TO.P,C6,2*%
%TO.N,/GND*%
X151460000Y-96750000D03*
%TD*%
D18*
%TO.P,R1,1*%
%TO.N,/PRESS_RAW*%
X123230000Y-107410000D03*
%TO.P,R1,2*%
%TO.N,/PRESS_DIV*%
X123230000Y-105760000D03*
%TD*%
D10*
%TO.P,D2,1,K_1*%
%TO.N,/GND*%
X164665000Y-98400000D03*
%TO.P,D2,2,A_2*%
%TO.N,Net-(D2-A)*%
X166240000Y-98400000D03*
%TD*%
D22*
%TO.P,U2,1,VIN_1*%
%TO.N,/+5V_IN*%
X125535000Y-106930000D03*
%TO.P,U2,2,GND_2*%
%TO.N,/GND*%
X125535000Y-107880000D03*
%TO.P,U2,3,EN_3*%
%TO.N,/+5V_IN*%
X125535000Y-108830000D03*
%TO.P,U2,4,NC_4*%
%TO.N,unconnected-(U2-NC-Pad4)*%
X127810000Y-108830000D03*
%TO.P,U2,5,VOUT_5*%
%TO.N,/+3V3*%
X127810000Y-106930000D03*
%TD*%
D12*
%TO.P,J2,1,Pin_1_1*%
%TO.N,/+5V_IN*%
X120370000Y-105190000D03*
D13*
%TO.P,J2,2,Pin_2_2*%
%TO.N,/PRESS_RAW*%
X120370000Y-107730000D03*
%TO.P,J2,3,Pin_3_3*%
%TO.N,/GND*%
X120370000Y-110270000D03*
%TD*%
D11*
%TO.P,C4,1*%
%TO.N,/+3V3*%
X164045000Y-95420000D03*
%TO.P,C4,2*%
%TO.N,/GND*%
X165595000Y-95420000D03*
%TD*%
%TO.P,C9,1*%
%TO.N,/+3V3*%
X162620000Y-101310000D03*
%TO.P,C9,2*%
%TO.N,/GND*%
X164170000Y-101310000D03*
%TD*%
D17*
%TO.P,U4,1,GND_1*%
%TO.N,/GND*%
X156290000Y-116640000D03*
%TO.P,U4,2,T-_2*%
%TO.N,Net-(J4-Pin_2)*%
X156290000Y-115370000D03*
%TO.P,U4,3,T+_3*%
%TO.N,Net-(J4-Pin_1)*%
X156290000Y-114100000D03*
%TO.P,U4,4,V_{CC}_4*%
%TO.N,/+3V3*%
X156290000Y-112830000D03*
%TO.P,U4,5,SCK_5*%
%TO.N,/SPI_SCK*%
X151340000Y-112830000D03*
%TO.P,U4,6,~{CS}_6*%
%TO.N,/TC2_CS*%
X151340000Y-114100000D03*
%TO.P,U4,7,SO_7*%
%TO.N,/SPI_MISO*%
X151340000Y-115370000D03*
%TO.P,U4,8,NC_8*%
%TO.N,unconnected-(U4-NC-Pad8)*%
X151340000Y-116640000D03*
%TD*%
D12*
%TO.P,J4,1,Pin_1_1*%
%TO.N,Net-(J4-Pin_1)*%
X159880000Y-113950000D03*
D13*
%TO.P,J4,2,Pin_2_2*%
%TO.N,Net-(J4-Pin_2)*%
X159880000Y-116490000D03*
%TD*%
D23*
%TO.P,C1,1*%
%TO.N,/+5V_IN*%
X118000000Y-99160000D03*
%TO.P,C1,2*%
%TO.N,/GND*%
X118000000Y-97260000D03*
%TD*%
D20*
%TO.P,R3,1*%
%TO.N,/+3V3*%
X163010000Y-104360000D03*
%TO.P,R3,2*%
%TO.N,/GND*%
X164660000Y-104360000D03*
%TD*%
D19*
%TO.P,C3,1*%
%TO.N,/+3V3*%
X125890000Y-96030000D03*
%TO.P,C3,2*%
%TO.N,/GND*%
X127790000Y-96030000D03*
%TD*%
D24*
%TO.P,U1,1,GND_1*%
%TO.N,/GND*%
X130325000Y-96275000D03*
%TO.P,U1,2,VDD_2*%
%TO.N,/+3V3*%
X130325000Y-97545000D03*
%TO.P,U1,3,EN_3*%
%TO.N,/PRESS_DIV*%
X130325000Y-98815000D03*
%TO.P,U1,4,SENSOR_VP_4*%
%TO.N,unconnected-(U1-SENSOR_VP-Pad4)*%
X130325000Y-100085000D03*
%TO.P,U1,5,SENSOR_VN_5*%
%TO.N,unconnected-(U1-SENSOR_VN-Pad5)*%
X130325000Y-101355000D03*
%TO.P,U1,6,IO34_6*%
%TO.N,/+3V3*%
X130325000Y-102625000D03*
%TO.P,U1,7,IO35_7*%
%TO.N,unconnected-(U1-IO35-Pad7)*%
X130325000Y-103895000D03*
%TO.P,U1,8,IO32_8*%
%TO.N,unconnected-(U1-IO32-Pad8)*%
X130325000Y-105165000D03*
%TO.P,U1,9,IO33_9*%
%TO.N,unconnected-(U1-IO33-Pad9)*%
X130325000Y-106435000D03*
%TO.P,U1,10,IO25_10*%
%TO.N,unconnected-(U1-IO25-Pad10)*%
X130325000Y-107705000D03*
%TO.P,U1,11,IO26_11*%
%TO.N,unconnected-(U1-IO26-Pad11)*%
X130325000Y-108975000D03*
%TO.P,U1,12,IO27_12*%
%TO.N,unconnected-(U1-IO27-Pad12)*%
X130325000Y-110245000D03*
%TO.P,U1,13,IO14_13*%
%TO.N,unconnected-(U1-IO14-Pad13)*%
X130325000Y-111515000D03*
%TO.P,U1,14,IO12_14*%
%TO.N,unconnected-(U1-IO12-Pad14)*%
X130325000Y-112785000D03*
D25*
%TO.P,U1,15,GND_15*%
%TO.N,/GND*%
X133365000Y-114035000D03*
%TO.P,U1,16,IO13_16*%
%TO.N,unconnected-(U1-IO13-Pad16)*%
X134635000Y-114035000D03*
%TO.P,U1,17,NC_17*%
%TO.N,unconnected-(U1-NC-Pad17)*%
X135905000Y-114035000D03*
%TO.P,U1,18,NC_18*%
%TO.N,unconnected-(U1-NC-Pad18)*%
X137175000Y-114035000D03*
%TO.P,U1,19,NC_19*%
%TO.N,unconnected-(U1-NC-Pad19)*%
X138445000Y-114035000D03*
%TO.P,U1,20,NC_20*%
%TO.N,unconnected-(U1-NC-Pad20)*%
X139715000Y-114035000D03*
%TO.P,U1,21,NC_21*%
%TO.N,unconnected-(U1-NC-Pad21)*%
X140985000Y-114035000D03*
%TO.P,U1,22,NC_22*%
%TO.N,unconnected-(U1-NC-Pad22)*%
X142255000Y-114035000D03*
%TO.P,U1,23,IO15_23*%
%TO.N,unconnected-(U1-IO15-Pad23)*%
X143525000Y-114035000D03*
%TO.P,U1,24,IO2_24*%
%TO.N,unconnected-(U1-IO2-Pad24)*%
X144795000Y-114035000D03*
D24*
%TO.P,U1,25,IO0_25*%
%TO.N,unconnected-(U1-IO0-Pad25)*%
X147825000Y-112785000D03*
%TO.P,U1,26,IO4_26*%
%TO.N,unconnected-(U1-IO4-Pad26)*%
X147825000Y-111515000D03*
%TO.P,U1,27,IO16_27*%
%TO.N,/TC2_CS*%
X147825000Y-110245000D03*
%TO.P,U1,28,IO17_28*%
%TO.N,unconnected-(U1-IO17-Pad28)*%
X147825000Y-108975000D03*
%TO.P,U1,29,IO5_29*%
%TO.N,/TC1_CS*%
X147825000Y-107705000D03*
%TO.P,U1,30,IO18_30*%
%TO.N,/SPI_SCK*%
X147825000Y-106435000D03*
%TO.P,U1,31,IO19_31*%
%TO.N,/SPI_MISO*%
X147825000Y-105165000D03*
%TO.P,U1,32,NC_32*%
%TO.N,unconnected-(U1-NC-Pad32)*%
X147825000Y-103895000D03*
%TO.P,U1,33,IO21_33*%
%TO.N,unconnected-(U1-IO21-Pad33)*%
X147825000Y-102625000D03*
%TO.P,U1,34,RXD0/IO3_34*%
%TO.N,/UART_RX*%
X147825000Y-101355000D03*
%TO.P,U1,35,TXD0/IO1_35*%
%TO.N,/UART_TX*%
X147825000Y-100085000D03*
%TO.P,U1,36,IO22_36*%
%TO.N,unconnected-(U1-IO22-Pad36)*%
X147825000Y-98815000D03*
%TO.P,U1,37,IO23_37*%
%TO.N,/ACT_LED*%
X147825000Y-97545000D03*
%TO.P,U1,38,GND_38*%
%TO.N,/GND*%
X147825000Y-96275000D03*
D26*
%TO.P,U1,39,GND_39*%
X136870000Y-102090000D03*
D27*
X136870000Y-102852500D03*
D26*
X136870000Y-103615000D03*
D27*
X136870000Y-104377500D03*
D26*
X136870000Y-105140000D03*
D27*
X137632500Y-102090000D03*
X137632500Y-103615000D03*
X137632500Y-105140000D03*
D26*
X138395000Y-102090000D03*
D27*
X138395000Y-102852500D03*
D26*
X138395000Y-103615000D03*
D28*
X138395000Y-103615000D03*
D27*
X138395000Y-104377500D03*
D26*
X138395000Y-105140000D03*
D27*
X139157500Y-102090000D03*
X139157500Y-103615000D03*
X139157500Y-105140000D03*
D26*
X139920000Y-102090000D03*
D27*
X139920000Y-102852500D03*
D26*
X139920000Y-103615000D03*
D27*
X139920000Y-104377500D03*
D26*
X139920000Y-105140000D03*
%TD*%
D29*
%TO.N,/GND*%
X136888750Y-102871250D03*
X139220000Y-105140000D03*
X140005000Y-104315000D03*
X139157500Y-103615000D03*
X158830000Y-96390000D03*
X122240000Y-103050000D03*
X159570000Y-102440000D03*
X139178750Y-102111250D03*
X152420000Y-96490000D03*
X138395000Y-104377500D03*
X136890000Y-104377500D03*
X138411250Y-102868750D03*
X141270000Y-104430000D03*
X137651250Y-102108750D03*
X139920000Y-102852500D03*
X137632500Y-103615000D03*
X141240000Y-103080000D03*
X158050000Y-108540000D03*
X146500000Y-96520000D03*
X137681250Y-105091250D03*
%TD*%
%TO.N,/GND*%
D30*
X115760000Y-105660000D02*
X120370000Y-110270000D01*
X167002500Y-96827500D02*
X167002500Y-98887540D01*
X125065000Y-96875000D02*
X125065000Y-96700000D01*
X138395000Y-104377500D02*
X137681250Y-105091250D01*
X166340040Y-99550000D02*
X164665000Y-99550000D01*
X164170000Y-103870000D02*
X164660000Y-104360000D01*
X156390000Y-108210000D02*
X157720000Y-108210000D01*
X140560000Y-105140000D02*
X141270000Y-104430000D01*
X137681250Y-105091250D02*
X137632500Y-105140000D01*
X122435000Y-108205000D02*
X125210000Y-108205000D01*
X120370000Y-110270000D02*
X122435000Y-108205000D01*
X120250000Y-98210000D02*
X119125000Y-99335000D01*
X123555000Y-98210000D02*
X125065000Y-96700000D01*
X152160000Y-96750000D02*
X152420000Y-96490000D01*
X139178750Y-102111250D02*
X139157500Y-102090000D01*
X139920000Y-102852500D02*
X139178750Y-102111250D01*
X136888750Y-102871250D02*
X136870000Y-102852500D01*
X139157500Y-103615000D02*
X138411250Y-102868750D01*
X136890000Y-104377500D02*
X136870000Y-104377500D01*
X137651250Y-102108750D02*
X138395000Y-102852500D01*
X123020000Y-104140000D02*
X123020000Y-103830000D01*
X125065000Y-95309900D02*
X125394900Y-94980000D01*
X130080000Y-96030000D02*
X130325000Y-96275000D01*
X139920000Y-104377500D02*
X139942500Y-104377500D01*
X123020000Y-103830000D02*
X122240000Y-103050000D01*
X120250000Y-98210000D02*
X123555000Y-98210000D01*
X167002500Y-98887540D02*
X166340040Y-99550000D01*
X138395000Y-104377500D02*
X139157500Y-105140000D01*
X147825000Y-96275000D02*
X146745000Y-96275000D01*
X154990000Y-113749092D02*
X154990000Y-116314999D01*
X119940000Y-103050000D02*
X122240000Y-103050000D01*
X137632500Y-103615000D02*
X136888750Y-102871250D01*
X118000000Y-97260000D02*
X119300000Y-97260000D01*
X146745000Y-96275000D02*
X146500000Y-96520000D01*
X157750000Y-109570000D02*
X157750000Y-110720000D01*
X165595000Y-95420000D02*
X167002500Y-96827500D01*
X164665000Y-99550000D02*
X164665000Y-100815000D01*
X125210000Y-108205000D02*
X125535000Y-107880000D01*
X119125000Y-99335000D02*
X119125000Y-102235000D01*
X126400000Y-98210000D02*
X125065000Y-96875000D01*
X137632500Y-102090000D02*
X137651250Y-102108750D01*
X119125000Y-102235000D02*
X119940000Y-103050000D01*
X164170000Y-101310000D02*
X164170000Y-103870000D01*
X127450000Y-98210000D02*
X126400000Y-98210000D01*
X127790000Y-96030000D02*
X130080000Y-96030000D01*
X133365000Y-114035000D02*
X133365000Y-110932500D01*
X159230000Y-102780000D02*
X159570000Y-102440000D01*
X155315001Y-116640000D02*
X156290000Y-116640000D01*
X114360000Y-105660000D02*
X115760000Y-105660000D01*
X133365000Y-110932500D02*
X139157500Y-105140000D01*
X156390000Y-108210000D02*
X157750000Y-109570000D01*
X141012500Y-102852500D02*
X141240000Y-103080000D01*
X157750000Y-110720000D02*
X157750000Y-113020908D01*
X160453604Y-102440000D02*
X162285000Y-104271396D01*
X158530000Y-100240000D02*
X158530000Y-102740000D01*
X139920000Y-102852500D02*
X141012500Y-102852500D01*
X140005000Y-104315000D02*
X141240000Y-103080000D01*
X126740000Y-94980000D02*
X127790000Y-96030000D01*
X138395000Y-104377500D02*
X136890000Y-104377500D01*
X164660000Y-104360000D02*
X164660000Y-107320000D01*
X163789052Y-108340000D02*
X164170000Y-107959052D01*
X125394900Y-94980000D02*
X126740000Y-94980000D01*
X125065000Y-96700000D02*
X125065000Y-95309900D01*
X158490000Y-102780000D02*
X159230000Y-102780000D01*
X157720000Y-108210000D02*
X158050000Y-108540000D01*
X162285000Y-104271396D02*
X162285000Y-107754052D01*
X164665000Y-98400000D02*
X164665000Y-99550000D01*
X151460000Y-96750000D02*
X152160000Y-96750000D01*
X157750000Y-113020908D02*
X157310908Y-113460000D01*
X162285000Y-107754052D02*
X162870948Y-108340000D01*
X159570000Y-102440000D02*
X160453604Y-102440000D01*
X155279092Y-113460000D02*
X154990000Y-113749092D01*
X164660000Y-107320000D02*
X164880000Y-107540000D01*
X158220000Y-97470000D02*
X158220000Y-97000000D01*
X157310908Y-113460000D02*
X155279092Y-113460000D01*
X158530000Y-102740000D02*
X158490000Y-102780000D01*
X139942500Y-104377500D02*
X140005000Y-104315000D01*
X164170000Y-107959052D02*
X164170000Y-101310000D01*
X164665000Y-100815000D02*
X164170000Y-101310000D01*
X154990000Y-116314999D02*
X155315001Y-116640000D01*
X119300000Y-97260000D02*
X120250000Y-98210000D01*
X139220000Y-105140000D02*
X140560000Y-105140000D01*
X158220000Y-97000000D02*
X158830000Y-96390000D01*
X139157500Y-105140000D02*
X139220000Y-105140000D01*
X162870948Y-108340000D02*
X163789052Y-108340000D01*
X138411250Y-102868750D02*
X138395000Y-102852500D01*
%TO.N,/+5V_IN*%
X118000000Y-99160000D02*
X118000000Y-102820000D01*
X120620000Y-104940000D02*
X120370000Y-105190000D01*
X124570000Y-104140000D02*
X123770000Y-104940000D01*
X126522500Y-107255001D02*
X126522500Y-108230908D01*
X125290000Y-106685000D02*
X125535000Y-106930000D01*
X114360000Y-100660000D02*
X116500000Y-100660000D01*
X120370000Y-105190000D02*
X121865000Y-106685000D01*
X118000000Y-102820000D02*
X120370000Y-105190000D01*
X126522500Y-108230908D02*
X125923408Y-108830000D01*
X126197499Y-106930000D02*
X126522500Y-107255001D01*
X125535000Y-106930000D02*
X126197499Y-106930000D01*
X123770000Y-104940000D02*
X120620000Y-104940000D01*
X121865000Y-106685000D02*
X125290000Y-106685000D01*
X116500000Y-100660000D02*
X118000000Y-99160000D01*
X125923408Y-108830000D02*
X125535000Y-108830000D01*
%TO.N,/+3V3*%
X128410000Y-103090000D02*
X129860000Y-103090000D01*
X157860000Y-98370000D02*
X161385000Y-98370000D01*
X129965000Y-97185000D02*
X130325000Y-97545000D01*
X164045000Y-95420000D02*
X164045000Y-95710000D01*
X156940000Y-101190000D02*
X156940000Y-102780000D01*
X162620000Y-103970000D02*
X163010000Y-104360000D01*
X155850000Y-110720000D02*
X155850000Y-112390000D01*
X130975000Y-102625000D02*
X130325000Y-102625000D01*
X163010000Y-107220000D02*
X163330000Y-107540000D01*
X154160000Y-98410000D02*
X151570000Y-98410000D01*
X155990000Y-100240000D02*
X154160000Y-98410000D01*
X130325000Y-97545000D02*
X131755000Y-97545000D01*
X125890000Y-96030000D02*
X127045000Y-97185000D01*
X130905000Y-97545000D02*
X131400000Y-98040000D01*
X155090000Y-105319092D02*
X156009092Y-104400000D01*
X129860000Y-103090000D02*
X130325000Y-102625000D01*
X155850000Y-110720000D02*
X155090000Y-109960000D01*
X131400000Y-98040000D02*
X131400000Y-102200000D01*
X156940000Y-103850000D02*
X156390000Y-104400000D01*
X156940000Y-102780000D02*
X156940000Y-103850000D01*
X163010000Y-104360000D02*
X163010000Y-107220000D01*
X127810000Y-106930000D02*
X129210000Y-105530000D01*
X129210000Y-103890000D02*
X128410000Y-103090000D01*
X129210000Y-105530000D02*
X129210000Y-103890000D01*
X163755000Y-95130000D02*
X164045000Y-95420000D01*
X156009092Y-104400000D02*
X156390000Y-104400000D01*
X131400000Y-102200000D02*
X130975000Y-102625000D01*
X155990000Y-100240000D02*
X156940000Y-101190000D01*
X161385000Y-98370000D02*
X161385000Y-100075000D01*
X130325000Y-97545000D02*
X130905000Y-97545000D01*
X162620000Y-101310000D02*
X162620000Y-103970000D01*
X131755000Y-97545000D02*
X134170000Y-95130000D01*
X155850000Y-112390000D02*
X156290000Y-112830000D01*
X151570000Y-98410000D02*
X149910000Y-96750000D01*
X161385000Y-100075000D02*
X162620000Y-101310000D01*
X155090000Y-109960000D02*
X155090000Y-105319092D01*
X155990000Y-100240000D02*
X157860000Y-98370000D01*
X134170000Y-95130000D02*
X163755000Y-95130000D01*
X127045000Y-97185000D02*
X129965000Y-97185000D01*
X164045000Y-95710000D02*
X161385000Y-98370000D01*
%TO.N,Net-(D1-K)*%
X156505000Y-97610000D02*
X156645000Y-97470000D01*
X154800000Y-97610000D02*
X156505000Y-97610000D01*
%TO.N,Net-(D2-A)*%
X163805000Y-97600000D02*
X165440000Y-97600000D01*
X163035000Y-98370000D02*
X163805000Y-97600000D01*
X165440000Y-97600000D02*
X166240000Y-98400000D01*
%TO.N,/PRESS_RAW*%
X123230000Y-107410000D02*
X120690000Y-107410000D01*
X120690000Y-107410000D02*
X120370000Y-107730000D01*
%TO.N,Net-(J3-Pin_1)*%
X160440000Y-105460000D02*
X156600000Y-105460000D01*
X156600000Y-105460000D02*
X156390000Y-105670000D01*
%TO.N,Net-(J3-Pin_2)*%
X159380000Y-106940000D02*
X156390000Y-106940000D01*
X160440000Y-108000000D02*
X159380000Y-106940000D01*
%TO.N,Net-(J4-Pin_1)*%
X156290000Y-114100000D02*
X159730000Y-114100000D01*
X159730000Y-114100000D02*
X159880000Y-113950000D01*
%TO.N,Net-(J4-Pin_2)*%
X158760000Y-115370000D02*
X159880000Y-116490000D01*
X156290000Y-115370000D02*
X158760000Y-115370000D01*
%TO.N,/UART_RX*%
X149795000Y-101355000D02*
X150910000Y-100240000D01*
X147825000Y-101355000D02*
X149795000Y-101355000D01*
%TO.N,/UART_TX*%
X152275000Y-99065000D02*
X153450000Y-100240000D01*
X150423299Y-99065000D02*
X152275000Y-99065000D01*
X147825000Y-100085000D02*
X149403299Y-100085000D01*
X149403299Y-100085000D02*
X150423299Y-99065000D01*
%TO.N,/PRESS_DIV*%
X127450000Y-103780000D02*
X128410000Y-104740000D01*
X127450000Y-101210000D02*
X127450000Y-103780000D01*
X127390000Y-105760000D02*
X128410000Y-104740000D01*
X130325000Y-98815000D02*
X129325000Y-98815000D01*
X124209052Y-105760000D02*
X125345000Y-104624052D01*
X129325000Y-98815000D02*
X127450000Y-100690000D01*
X127450000Y-100690000D02*
X127450000Y-101210000D01*
X123230000Y-105760000D02*
X124209052Y-105760000D01*
X122899052Y-101210000D02*
X120250000Y-101210000D01*
X125345000Y-104624052D02*
X125345000Y-103655948D01*
X125345000Y-103655948D02*
X122899052Y-101210000D01*
X123230000Y-105760000D02*
X127390000Y-105760000D01*
%TO.N,/ACT_LED*%
X149135000Y-95585000D02*
X149140000Y-95580000D01*
X147825000Y-97545000D02*
X148824052Y-97545000D01*
X152500000Y-95600000D02*
X153150000Y-96250000D01*
X149135000Y-97234052D02*
X149135000Y-95585000D01*
X152500000Y-95580000D02*
X152500000Y-95600000D01*
X148824052Y-97545000D02*
X149135000Y-97234052D01*
X149140000Y-95580000D02*
X152500000Y-95580000D01*
X153150000Y-96250000D02*
X153150000Y-97610000D01*
%TO.N,/TC1_CS*%
X148430001Y-107705000D02*
X147825000Y-107705000D01*
X151440000Y-105670000D02*
X150465001Y-105670000D01*
X150465001Y-105670000D02*
X148430001Y-107705000D01*
%TO.N,/TC2_CS*%
X150405908Y-110245000D02*
X147825000Y-110245000D01*
X151340000Y-114100000D02*
X151720908Y-114100000D01*
X152640000Y-112479092D02*
X150405908Y-110245000D01*
X151720908Y-114100000D02*
X152640000Y-113180908D01*
X152640000Y-113180908D02*
X152640000Y-112479092D01*
%TO.N,/SPI_SCK*%
X147245000Y-106435000D02*
X147825000Y-106435000D01*
X151440000Y-104400000D02*
X150465001Y-104400000D01*
X151340000Y-112830000D02*
X149630000Y-112830000D01*
X146750000Y-113560000D02*
X146750000Y-106930000D01*
X148900000Y-113560000D02*
X146750000Y-113560000D01*
X149630000Y-112830000D02*
X148900000Y-113560000D01*
X148430001Y-106435000D02*
X147825000Y-106435000D01*
X150465001Y-104400000D02*
X148430001Y-106435000D01*
X146750000Y-106930000D02*
X147245000Y-106435000D01*
%TO.N,/SPI_MISO*%
X152465908Y-103775000D02*
X150215000Y-103775000D01*
X152740000Y-104049092D02*
X152465908Y-103775000D01*
X152314999Y-115370000D02*
X153090000Y-114594999D01*
X152740000Y-106614999D02*
X152740000Y-104049092D01*
X153090000Y-114594999D02*
X153090000Y-107615001D01*
X152414999Y-106940000D02*
X152740000Y-106614999D01*
X148825000Y-105165000D02*
X147825000Y-105165000D01*
X152414999Y-106940000D02*
X151440000Y-106940000D01*
X150215000Y-103775000D02*
X148825000Y-105165000D01*
X153090000Y-107615001D02*
X152414999Y-106940000D01*
X151340000Y-115370000D02*
X152314999Y-115370000D01*
%TD*%
M02*
