%TF.GenerationSoftware,KiCad,Pcbnew,10.0.1*%
%TF.CreationDate,2026-10-03T22:40:03+05:30*%
%TF.ProjectId,sensor_board,73656e73-6f72-45f6-926f-6172642e6b69,rev?*%
%TF.SameCoordinates,Original*%
%TF.FileFunction,Copper,L2,Bot*%
%TF.FilePolarity,Positive*%
%FSLAX46Y46*%
G04 Gerber Fmt 4.6, Leading zero omitted, Abs format (unit mm)*
G04 Created by KiCad (PCBNEW 10.0.1) date 2026-10-03 22:40:03*
%MOMM*%
%LPD*%
G01*
G04 APERTURE LIST*
G04 Aperture macros list*
%AMRoundRect*
0 Rectangle with rounded corners*
0 $1 Rounding radius*
0 $2 $3 $4 $5 $6 $7 $8 $9 X,Y pos of 4 corners*
0 Add a 4 corners polygon primitive as box body*
4,1,4,$2,$3,$4,$5,$6,$7,$8,$9,$2,$3,0*
0 Add four circle primitives for the rounded corners*
1,1,$1+$1,$2,$3*
1,1,$1+$1,$4,$5*
1,1,$1+$1,$6,$7*
1,1,$1+$1,$8,$9*
0 Add four rect primitives between the rounded corners*
20,1,$1+$1,$2,$3,$4,$5,0*
20,1,$1+$1,$4,$5,$6,$7,0*
20,1,$1+$1,$6,$7,$8,$9,0*
20,1,$1+$1,$8,$9,$2,$3,0*%
G04 Aperture macros list end*
%TA.AperFunction,ComponentPad*%
%ADD10R,1.700000X1.700000*%
%TD*%
%TA.AperFunction,ComponentPad*%
%ADD11C,1.700000*%
%TD*%
%TA.AperFunction,ComponentPad*%
%ADD12RoundRect,0.250000X-1.550000X0.750000X-1.550000X-0.750000X1.550000X-0.750000X1.550000X0.750000X0*%
%TD*%
%TA.AperFunction,ComponentPad*%
%ADD13O,3.600000X2.000000*%
%TD*%
%TA.AperFunction,HeatsinkPad*%
%ADD14C,0.600000*%
%TD*%
%TA.AperFunction,ViaPad*%
%ADD15C,0.600000*%
%TD*%
G04 APERTURE END LIST*
D10*
%TO.P,J3,1,Pin_1_1*%
%TO.N,Net-(J3-Pin_1)*%
X160440000Y-105460000D03*
D11*
%TO.P,J3,2,Pin_2_2*%
%TO.N,Net-(J3-Pin_2)*%
X160440000Y-108000000D03*
%TD*%
D12*
%TO.P,J1,1,Pin_1_1*%
%TO.N,/+5V_IN*%
X114360000Y-100660000D03*
D13*
%TO.P,J1,2,Pin_2_2*%
%TO.N,/GND*%
X114360000Y-105660000D03*
%TD*%
D10*
%TO.P,J5,1,Pin_1_1*%
%TO.N,/GND*%
X158530000Y-100240000D03*
D11*
%TO.P,J5,2,Pin_2_2*%
%TO.N,/+3V3*%
X155990000Y-100240000D03*
%TO.P,J5,3,Pin_3_3*%
%TO.N,/UART_TX*%
X153450000Y-100240000D03*
%TO.P,J5,4,Pin_4_4*%
%TO.N,/UART_RX*%
X150910000Y-100240000D03*
%TD*%
D10*
%TO.P,J2,1,Pin_1_1*%
%TO.N,/+5V_IN*%
X120370000Y-105190000D03*
D11*
%TO.P,J2,2,Pin_2_2*%
%TO.N,/PRESS_RAW*%
X120370000Y-107730000D03*
%TO.P,J2,3,Pin_3_3*%
%TO.N,/GND*%
X120370000Y-110270000D03*
%TD*%
D10*
%TO.P,J4,1,Pin_1_1*%
%TO.N,Net-(J4-Pin_1)*%
X159880000Y-113950000D03*
D11*
%TO.P,J4,2,Pin_2_2*%
%TO.N,Net-(J4-Pin_2)*%
X159880000Y-116490000D03*
%TD*%
D14*
%TO.P,U1,39,GND_39*%
%TO.N,/GND*%
X136870000Y-102852500D03*
X136870000Y-104377500D03*
X137632500Y-102090000D03*
X137632500Y-103615000D03*
X137632500Y-105140000D03*
X138395000Y-102852500D03*
X138395000Y-104377500D03*
X139157500Y-102090000D03*
X139157500Y-103615000D03*
X139157500Y-105140000D03*
X139920000Y-102852500D03*
X139920000Y-104377500D03*
%TD*%
D15*
%TO.N,/GND*%
X136888750Y-102871250D03*
X139220000Y-105140000D03*
X140005000Y-104315000D03*
X139157500Y-103615000D03*
X158830000Y-96390000D03*
X122240000Y-103050000D03*
X159570000Y-102440000D03*
X139178750Y-102111250D03*
X152420000Y-96490000D03*
X138395000Y-104377500D03*
X136890000Y-104377500D03*
X138411250Y-102868750D03*
X141270000Y-104430000D03*
X137651250Y-102108750D03*
X139920000Y-102852500D03*
X137632500Y-103615000D03*
X141240000Y-103080000D03*
X158050000Y-108540000D03*
X146500000Y-96520000D03*
X137681250Y-105091250D03*
%TD*%
%TA.AperFunction,Conductor*%
%TO.N,/GND*%
G36*
X169834142Y-83006954D02*
G01*
X169874995Y-83018915D01*
X170034122Y-83065501D01*
X170047662Y-83070333D01*
X170060007Y-83075564D01*
X170291999Y-83173869D01*
X170304871Y-83180228D01*
X170535575Y-83311347D01*
X170547626Y-83319153D01*
X170761610Y-83476096D01*
X170772677Y-83485246D01*
X170967049Y-83665897D01*
X170976994Y-83676278D01*
X171149142Y-83878203D01*
X171157819Y-83889665D01*
X171305437Y-84110156D01*
X171312729Y-84122546D01*
X171433840Y-84358651D01*
X171439650Y-84371803D01*
X171532617Y-84620340D01*
X171536864Y-84634074D01*
X171600436Y-84891684D01*
X171603066Y-84905818D01*
X171636395Y-85169068D01*
X171637371Y-85183412D01*
X171639859Y-85434065D01*
X171639860Y-85436373D01*
X171639626Y-85463323D01*
X171639488Y-85468202D01*
X171636912Y-85521768D01*
X171637584Y-85529865D01*
X171637317Y-85529887D01*
X171638910Y-85545378D01*
X171350161Y-118641926D01*
X171350161Y-118641927D01*
X171350046Y-118654981D01*
X171348754Y-118660047D01*
X171349472Y-118720730D01*
X171349461Y-118722035D01*
X171349430Y-118725669D01*
X171349267Y-118731060D01*
X171336467Y-118976836D01*
X171334636Y-118992564D01*
X171291119Y-119231960D01*
X171287298Y-119247326D01*
X171213631Y-119479218D01*
X171207883Y-119493972D01*
X171105267Y-119714582D01*
X171097686Y-119728484D01*
X170967789Y-119934226D01*
X170958498Y-119947048D01*
X170803442Y-120134557D01*
X170792593Y-120146090D01*
X170614910Y-120312307D01*
X170602680Y-120322364D01*
X170405256Y-120464590D01*
X170391843Y-120473006D01*
X170177919Y-120588905D01*
X170163544Y-120595544D01*
X169936576Y-120683243D01*
X169921472Y-120687995D01*
X169685191Y-120746054D01*
X169669605Y-120748843D01*
X169427849Y-120776319D01*
X169412033Y-120777099D01*
X169210421Y-120774151D01*
X169195534Y-120772079D01*
X169195422Y-120772932D01*
X169187364Y-120771872D01*
X169187362Y-120771872D01*
X169187359Y-120771872D01*
X169146042Y-120771879D01*
X169136298Y-120771497D01*
X169113867Y-120769732D01*
X169095124Y-120768258D01*
X169095123Y-120768258D01*
X169095122Y-120768258D01*
X169086710Y-120769817D01*
X169064137Y-120771893D01*
X111045123Y-120782203D01*
X111045124Y-120782204D01*
X111038916Y-120782205D01*
X110998264Y-120778136D01*
X110973294Y-120782217D01*
X110963237Y-120782219D01*
X110947989Y-120782223D01*
X110947987Y-120782223D01*
X110947982Y-120782224D01*
X110927439Y-120787733D01*
X110907784Y-120791336D01*
X110688731Y-120813458D01*
X110673536Y-120814056D01*
X110435450Y-120808801D01*
X110420293Y-120807533D01*
X110184657Y-120773172D01*
X110169771Y-120770059D01*
X109940107Y-120707109D01*
X109925714Y-120702197D01*
X109705487Y-120611608D01*
X109691803Y-120604971D01*
X109484313Y-120488097D01*
X109471545Y-120479834D01*
X109279937Y-120338449D01*
X109268276Y-120328686D01*
X109095407Y-120164898D01*
X109085029Y-120153780D01*
X108933512Y-119970064D01*
X108924574Y-119957760D01*
X108796693Y-119756888D01*
X108789327Y-119743582D01*
X108686993Y-119528554D01*
X108681312Y-119514446D01*
X108626330Y-119349341D01*
X108619980Y-119310821D01*
X108619561Y-119231960D01*
X108616405Y-118637648D01*
X109269500Y-118637648D01*
X109269500Y-118842351D01*
X109301522Y-119044534D01*
X109364781Y-119239223D01*
X109457715Y-119421613D01*
X109578028Y-119587213D01*
X109722786Y-119731971D01*
X109819566Y-119802284D01*
X109888390Y-119852287D01*
X109972647Y-119895218D01*
X110070776Y-119945218D01*
X110070778Y-119945218D01*
X110070781Y-119945220D01*
X110129168Y-119964191D01*
X110265465Y-120008477D01*
X110366557Y-120024488D01*
X110467648Y-120040500D01*
X110467649Y-120040500D01*
X110672351Y-120040500D01*
X110672352Y-120040500D01*
X110874534Y-120008477D01*
X111069219Y-119945220D01*
X111251610Y-119852287D01*
X111391767Y-119750458D01*
X111417213Y-119731971D01*
X111417215Y-119731968D01*
X111417219Y-119731966D01*
X111561966Y-119587219D01*
X111561968Y-119587215D01*
X111561971Y-119587213D01*
X111634940Y-119486778D01*
X111682287Y-119421610D01*
X111775220Y-119239219D01*
X111838477Y-119044534D01*
X111870500Y-118842352D01*
X111870500Y-118637648D01*
X111862581Y-118587648D01*
X168069500Y-118587648D01*
X168069500Y-118792351D01*
X168101522Y-118994534D01*
X168164781Y-119189223D01*
X168226739Y-119310821D01*
X168246366Y-119349341D01*
X168257715Y-119371613D01*
X168378028Y-119537213D01*
X168522786Y-119681971D01*
X168677749Y-119794556D01*
X168688390Y-119802287D01*
X168804607Y-119861503D01*
X168870776Y-119895218D01*
X168870778Y-119895218D01*
X168870781Y-119895220D01*
X168975137Y-119929127D01*
X169065465Y-119958477D01*
X169101542Y-119964191D01*
X169267648Y-119990500D01*
X169267649Y-119990500D01*
X169472351Y-119990500D01*
X169472352Y-119990500D01*
X169674534Y-119958477D01*
X169869219Y-119895220D01*
X170051610Y-119802287D01*
X170144590Y-119734732D01*
X170217213Y-119681971D01*
X170217215Y-119681968D01*
X170217219Y-119681966D01*
X170361966Y-119537219D01*
X170361968Y-119537215D01*
X170361971Y-119537213D01*
X170453769Y-119410862D01*
X170482287Y-119371610D01*
X170575220Y-119189219D01*
X170638477Y-118994534D01*
X170670500Y-118792352D01*
X170670500Y-118587648D01*
X170638477Y-118385466D01*
X170575220Y-118190781D01*
X170575218Y-118190778D01*
X170575218Y-118190776D01*
X170507761Y-118058386D01*
X170482287Y-118008390D01*
X170474556Y-117997749D01*
X170361971Y-117842786D01*
X170217213Y-117698028D01*
X170051613Y-117577715D01*
X170051612Y-117577714D01*
X170051610Y-117577713D01*
X169994653Y-117548691D01*
X169869223Y-117484781D01*
X169674534Y-117421522D01*
X169499995Y-117393878D01*
X169472352Y-117389500D01*
X169267648Y-117389500D01*
X169243329Y-117393351D01*
X169065465Y-117421522D01*
X168870776Y-117484781D01*
X168688386Y-117577715D01*
X168522786Y-117698028D01*
X168378028Y-117842786D01*
X168257715Y-118008386D01*
X168164781Y-118190776D01*
X168101522Y-118385465D01*
X168069500Y-118587648D01*
X111862581Y-118587648D01*
X111838477Y-118435466D01*
X111775220Y-118240781D01*
X111775218Y-118240778D01*
X111775218Y-118240776D01*
X111741503Y-118174607D01*
X111682287Y-118058390D01*
X111674556Y-118047749D01*
X111561971Y-117892786D01*
X111417213Y-117748028D01*
X111251613Y-117627715D01*
X111251612Y-117627714D01*
X111251610Y-117627713D01*
X111194653Y-117598691D01*
X111069223Y-117534781D01*
X110874534Y-117471522D01*
X110699995Y-117443878D01*
X110672352Y-117439500D01*
X110467648Y-117439500D01*
X110443329Y-117443351D01*
X110265465Y-117471522D01*
X110070776Y-117534781D01*
X109888386Y-117627715D01*
X109722786Y-117748028D01*
X109578028Y-117892786D01*
X109457715Y-118058386D01*
X109364781Y-118240776D01*
X109301522Y-118435465D01*
X109269500Y-118637648D01*
X108616405Y-118637648D01*
X108604542Y-116403389D01*
X158779500Y-116403389D01*
X158779500Y-116576611D01*
X158806598Y-116747701D01*
X158860127Y-116912445D01*
X158938768Y-117066788D01*
X159040586Y-117206928D01*
X159163072Y-117329414D01*
X159303212Y-117431232D01*
X159457555Y-117509873D01*
X159622299Y-117563402D01*
X159793389Y-117590500D01*
X159793390Y-117590500D01*
X159966610Y-117590500D01*
X159966611Y-117590500D01*
X160137701Y-117563402D01*
X160302445Y-117509873D01*
X160456788Y-117431232D01*
X160596928Y-117329414D01*
X160719414Y-117206928D01*
X160821232Y-117066788D01*
X160899873Y-116912445D01*
X160953402Y-116747701D01*
X160980500Y-116576611D01*
X160980500Y-116403389D01*
X160953402Y-116232299D01*
X160899873Y-116067555D01*
X160821232Y-115913212D01*
X160719414Y-115773072D01*
X160596928Y-115650586D01*
X160456788Y-115548768D01*
X160302445Y-115470127D01*
X160137701Y-115416598D01*
X160137699Y-115416597D01*
X160137698Y-115416597D01*
X160006271Y-115395781D01*
X159966611Y-115389500D01*
X159793389Y-115389500D01*
X159753728Y-115395781D01*
X159622302Y-115416597D01*
X159457552Y-115470128D01*
X159303211Y-115548768D01*
X159223256Y-115606859D01*
X159163072Y-115650586D01*
X159163070Y-115650588D01*
X159163069Y-115650588D01*
X159040588Y-115773069D01*
X159040588Y-115773070D01*
X159040586Y-115773072D01*
X158996859Y-115833256D01*
X158938768Y-115913211D01*
X158860128Y-116067552D01*
X158806597Y-116232302D01*
X158780167Y-116399175D01*
X158779500Y-116403389D01*
X108604542Y-116403389D01*
X108586871Y-113075321D01*
X158779500Y-113075321D01*
X158779500Y-114824678D01*
X158794032Y-114897735D01*
X158794033Y-114897739D01*
X158794034Y-114897740D01*
X158849399Y-114980601D01*
X158932260Y-115035966D01*
X158932264Y-115035967D01*
X159005321Y-115050499D01*
X159005324Y-115050500D01*
X159005326Y-115050500D01*
X160754676Y-115050500D01*
X160754677Y-115050499D01*
X160827740Y-115035966D01*
X160910601Y-114980601D01*
X160965966Y-114897740D01*
X160980500Y-114824674D01*
X160980500Y-113075326D01*
X160980500Y-113075323D01*
X160980499Y-113075321D01*
X160965967Y-113002264D01*
X160965966Y-113002260D01*
X160910601Y-112919399D01*
X160827740Y-112864034D01*
X160827739Y-112864033D01*
X160827735Y-112864032D01*
X160754677Y-112849500D01*
X160754674Y-112849500D01*
X159005326Y-112849500D01*
X159005323Y-112849500D01*
X158932264Y-112864032D01*
X158932260Y-112864033D01*
X158849399Y-112919399D01*
X158794033Y-113002260D01*
X158794032Y-113002264D01*
X158779500Y-113075321D01*
X108586871Y-113075321D01*
X108571495Y-110179493D01*
X119220000Y-110179493D01*
X119220000Y-110360506D01*
X119248317Y-110539293D01*
X119304251Y-110711444D01*
X119304252Y-110711447D01*
X119386432Y-110872731D01*
X119457424Y-110970442D01*
X119457425Y-110970443D01*
X119926329Y-110501538D01*
X119969901Y-110577007D01*
X120062993Y-110670099D01*
X120138460Y-110713670D01*
X119669555Y-111182574D01*
X119767268Y-111253567D01*
X119928552Y-111335747D01*
X119928555Y-111335748D01*
X120100706Y-111391682D01*
X120279494Y-111420000D01*
X120460506Y-111420000D01*
X120639293Y-111391682D01*
X120811444Y-111335748D01*
X120811447Y-111335747D01*
X120972730Y-111253568D01*
X121070442Y-111182574D01*
X121070443Y-111182574D01*
X120601539Y-110713670D01*
X120677007Y-110670099D01*
X120770099Y-110577007D01*
X120813670Y-110501539D01*
X121282574Y-110970443D01*
X121282574Y-110970442D01*
X121353568Y-110872730D01*
X121435747Y-110711447D01*
X121435748Y-110711444D01*
X121491682Y-110539293D01*
X121520000Y-110360506D01*
X121520000Y-110179493D01*
X121491682Y-110000706D01*
X121435748Y-109828555D01*
X121435747Y-109828552D01*
X121353567Y-109667268D01*
X121282574Y-109569556D01*
X121282574Y-109569555D01*
X120813670Y-110038460D01*
X120770099Y-109962993D01*
X120677007Y-109869901D01*
X120601539Y-109826329D01*
X121070443Y-109357425D01*
X121070442Y-109357424D01*
X120972731Y-109286432D01*
X120811447Y-109204252D01*
X120811444Y-109204251D01*
X120639293Y-109148317D01*
X120460506Y-109120000D01*
X120279494Y-109120000D01*
X120100706Y-109148317D01*
X119928555Y-109204251D01*
X119928552Y-109204252D01*
X119767265Y-109286434D01*
X119669556Y-109357423D01*
X119669556Y-109357425D01*
X120138461Y-109826329D01*
X120062993Y-109869901D01*
X119969901Y-109962993D01*
X119926329Y-110038460D01*
X119457425Y-109569556D01*
X119457423Y-109569556D01*
X119386434Y-109667265D01*
X119304252Y-109828552D01*
X119304251Y-109828555D01*
X119248317Y-110000706D01*
X119220000Y-110179493D01*
X108571495Y-110179493D01*
X108558029Y-107643389D01*
X119269500Y-107643389D01*
X119269500Y-107816611D01*
X119296598Y-107987701D01*
X119350127Y-108152445D01*
X119428768Y-108306788D01*
X119530586Y-108446928D01*
X119653072Y-108569414D01*
X119793212Y-108671232D01*
X119947555Y-108749873D01*
X120112299Y-108803402D01*
X120283389Y-108830500D01*
X120283390Y-108830500D01*
X120456610Y-108830500D01*
X120456611Y-108830500D01*
X120627701Y-108803402D01*
X120792445Y-108749873D01*
X120946788Y-108671232D01*
X121086928Y-108569414D01*
X121209414Y-108446928D01*
X121311232Y-108306788D01*
X121389873Y-108152445D01*
X121443402Y-107987701D01*
X121455172Y-107913389D01*
X159339500Y-107913389D01*
X159339500Y-108086611D01*
X159366598Y-108257701D01*
X159420127Y-108422445D01*
X159498768Y-108576788D01*
X159600586Y-108716928D01*
X159723072Y-108839414D01*
X159863212Y-108941232D01*
X160017555Y-109019873D01*
X160182299Y-109073402D01*
X160353389Y-109100500D01*
X160353390Y-109100500D01*
X160526610Y-109100500D01*
X160526611Y-109100500D01*
X160697701Y-109073402D01*
X160862445Y-109019873D01*
X161016788Y-108941232D01*
X161156928Y-108839414D01*
X161279414Y-108716928D01*
X161381232Y-108576788D01*
X161459873Y-108422445D01*
X161513402Y-108257701D01*
X161540500Y-108086611D01*
X161540500Y-107913389D01*
X161513402Y-107742299D01*
X161459873Y-107577555D01*
X161381232Y-107423212D01*
X161279414Y-107283072D01*
X161156928Y-107160586D01*
X161016788Y-107058768D01*
X160862445Y-106980127D01*
X160697701Y-106926598D01*
X160697699Y-106926597D01*
X160697698Y-106926597D01*
X160566271Y-106905781D01*
X160526611Y-106899500D01*
X160353389Y-106899500D01*
X160313728Y-106905781D01*
X160182302Y-106926597D01*
X160017552Y-106980128D01*
X159863211Y-107058768D01*
X159783256Y-107116859D01*
X159723072Y-107160586D01*
X159723070Y-107160588D01*
X159723069Y-107160588D01*
X159600588Y-107283069D01*
X159600588Y-107283070D01*
X159600586Y-107283072D01*
X159582798Y-107307555D01*
X159498768Y-107423211D01*
X159420128Y-107577552D01*
X159366597Y-107742302D01*
X159354828Y-107816610D01*
X159339500Y-107913389D01*
X121455172Y-107913389D01*
X121470500Y-107816611D01*
X121470500Y-107643389D01*
X121443402Y-107472299D01*
X121389873Y-107307555D01*
X121311232Y-107153212D01*
X121209414Y-107013072D01*
X121086928Y-106890586D01*
X120946788Y-106788768D01*
X120792445Y-106710127D01*
X120627701Y-106656598D01*
X120627699Y-106656597D01*
X120627698Y-106656597D01*
X120496271Y-106635781D01*
X120456611Y-106629500D01*
X120283389Y-106629500D01*
X120243728Y-106635781D01*
X120112302Y-106656597D01*
X119947552Y-106710128D01*
X119793211Y-106788768D01*
X119713256Y-106846859D01*
X119653072Y-106890586D01*
X119653070Y-106890588D01*
X119653069Y-106890588D01*
X119530588Y-107013069D01*
X119530588Y-107013070D01*
X119530586Y-107013072D01*
X119497386Y-107058768D01*
X119428768Y-107153211D01*
X119350128Y-107307552D01*
X119296597Y-107472302D01*
X119279927Y-107577555D01*
X119269500Y-107643389D01*
X108558029Y-107643389D01*
X108546701Y-105510000D01*
X112267553Y-105510000D01*
X113676123Y-105510000D01*
X113660000Y-105591056D01*
X113660000Y-105728944D01*
X113676123Y-105810000D01*
X112267553Y-105810000D01*
X112292009Y-105964417D01*
X112355244Y-106159031D01*
X112448140Y-106341349D01*
X112568417Y-106506894D01*
X112568417Y-106506895D01*
X112713104Y-106651582D01*
X112878650Y-106771859D01*
X113060968Y-106864755D01*
X113255582Y-106927990D01*
X113457683Y-106960000D01*
X114210000Y-106960000D01*
X114210000Y-106343876D01*
X114291056Y-106360000D01*
X114428944Y-106360000D01*
X114510000Y-106343876D01*
X114510000Y-106960000D01*
X115262317Y-106960000D01*
X115464417Y-106927990D01*
X115659031Y-106864755D01*
X115841349Y-106771859D01*
X116006894Y-106651582D01*
X116006895Y-106651582D01*
X116151582Y-106506895D01*
X116151582Y-106506894D01*
X116271859Y-106341349D01*
X116364755Y-106159031D01*
X116427990Y-105964417D01*
X116452447Y-105810000D01*
X115043877Y-105810000D01*
X115060000Y-105728944D01*
X115060000Y-105591056D01*
X115043877Y-105510000D01*
X116452447Y-105510000D01*
X116427990Y-105355582D01*
X116364755Y-105160968D01*
X116271859Y-104978650D01*
X116151582Y-104813105D01*
X116151582Y-104813104D01*
X116006895Y-104668417D01*
X115841349Y-104548140D01*
X115659031Y-104455244D01*
X115572612Y-104427165D01*
X115464417Y-104392009D01*
X115262317Y-104360000D01*
X114510000Y-104360000D01*
X114510000Y-104976123D01*
X114428944Y-104960000D01*
X114291056Y-104960000D01*
X114210000Y-104976123D01*
X114210000Y-104360000D01*
X113457683Y-104360000D01*
X113255582Y-104392009D01*
X113060968Y-104455244D01*
X112878650Y-104548140D01*
X112713105Y-104668417D01*
X112713104Y-104668417D01*
X112568417Y-104813104D01*
X112568417Y-104813105D01*
X112448140Y-104978650D01*
X112355244Y-105160968D01*
X112292009Y-105355582D01*
X112267553Y-105510000D01*
X108546701Y-105510000D01*
X108540358Y-104315321D01*
X119269500Y-104315321D01*
X119269500Y-106064678D01*
X119284032Y-106137735D01*
X119284033Y-106137739D01*
X119284034Y-106137740D01*
X119339399Y-106220601D01*
X119422260Y-106275966D01*
X119422264Y-106275967D01*
X119495321Y-106290499D01*
X119495324Y-106290500D01*
X119495326Y-106290500D01*
X121244676Y-106290500D01*
X121244677Y-106290499D01*
X121317740Y-106275966D01*
X121400601Y-106220601D01*
X121455966Y-106137740D01*
X121470500Y-106064674D01*
X121470500Y-104585321D01*
X159339500Y-104585321D01*
X159339500Y-106334678D01*
X159354032Y-106407735D01*
X159354033Y-106407739D01*
X159354034Y-106407740D01*
X159409399Y-106490601D01*
X159492260Y-106545966D01*
X159492264Y-106545967D01*
X159565321Y-106560499D01*
X159565324Y-106560500D01*
X159565326Y-106560500D01*
X161314676Y-106560500D01*
X161314677Y-106560499D01*
X161387740Y-106545966D01*
X161470601Y-106490601D01*
X161525966Y-106407740D01*
X161540500Y-106334674D01*
X161540500Y-104585326D01*
X161540500Y-104585323D01*
X161540499Y-104585321D01*
X161525967Y-104512264D01*
X161525966Y-104512260D01*
X161470601Y-104429399D01*
X161387740Y-104374034D01*
X161387739Y-104374033D01*
X161387735Y-104374032D01*
X161314677Y-104359500D01*
X161314674Y-104359500D01*
X159565326Y-104359500D01*
X159565323Y-104359500D01*
X159492264Y-104374032D01*
X159492260Y-104374033D01*
X159409399Y-104429399D01*
X159354033Y-104512260D01*
X159354032Y-104512264D01*
X159339500Y-104585321D01*
X121470500Y-104585321D01*
X121470500Y-104315326D01*
X121470500Y-104315323D01*
X121470499Y-104315321D01*
X121455967Y-104242264D01*
X121455966Y-104242260D01*
X121400601Y-104159399D01*
X121317740Y-104104034D01*
X121317739Y-104104033D01*
X121317735Y-104104032D01*
X121244677Y-104089500D01*
X121244674Y-104089500D01*
X119495326Y-104089500D01*
X119495323Y-104089500D01*
X119422264Y-104104032D01*
X119422260Y-104104033D01*
X119339399Y-104159399D01*
X119284033Y-104242260D01*
X119284032Y-104242264D01*
X119269500Y-104315321D01*
X108540358Y-104315321D01*
X108516712Y-99862135D01*
X112309500Y-99862135D01*
X112309500Y-101457870D01*
X112309501Y-101457876D01*
X112315908Y-101517483D01*
X112366202Y-101652328D01*
X112366206Y-101652335D01*
X112452452Y-101767544D01*
X112452455Y-101767547D01*
X112567664Y-101853793D01*
X112567671Y-101853797D01*
X112702517Y-101904091D01*
X112702516Y-101904091D01*
X112709444Y-101904835D01*
X112762127Y-101910500D01*
X115957872Y-101910499D01*
X116017483Y-101904091D01*
X116152331Y-101853796D01*
X116267546Y-101767546D01*
X116353796Y-101652331D01*
X116404091Y-101517483D01*
X116410500Y-101457873D01*
X116410499Y-100153389D01*
X149809500Y-100153389D01*
X149809500Y-100326611D01*
X149836598Y-100497701D01*
X149890127Y-100662445D01*
X149968768Y-100816788D01*
X150070586Y-100956928D01*
X150193072Y-101079414D01*
X150333212Y-101181232D01*
X150487555Y-101259873D01*
X150652299Y-101313402D01*
X150823389Y-101340500D01*
X150823390Y-101340500D01*
X150996610Y-101340500D01*
X150996611Y-101340500D01*
X151167701Y-101313402D01*
X151332445Y-101259873D01*
X151486788Y-101181232D01*
X151626928Y-101079414D01*
X151749414Y-100956928D01*
X151851232Y-100816788D01*
X151929873Y-100662445D01*
X151983402Y-100497701D01*
X152010500Y-100326611D01*
X152010500Y-100153389D01*
X152349500Y-100153389D01*
X152349500Y-100326611D01*
X152376598Y-100497701D01*
X152430127Y-100662445D01*
X152508768Y-100816788D01*
X152610586Y-100956928D01*
X152733072Y-101079414D01*
X152873212Y-101181232D01*
X153027555Y-101259873D01*
X153192299Y-101313402D01*
X153363389Y-101340500D01*
X153363390Y-101340500D01*
X153536610Y-101340500D01*
X153536611Y-101340500D01*
X153707701Y-101313402D01*
X153872445Y-101259873D01*
X154026788Y-101181232D01*
X154166928Y-101079414D01*
X154289414Y-100956928D01*
X154391232Y-100816788D01*
X154469873Y-100662445D01*
X154523402Y-100497701D01*
X154550500Y-100326611D01*
X154550500Y-100153389D01*
X154889500Y-100153389D01*
X154889500Y-100326611D01*
X154916598Y-100497701D01*
X154970127Y-100662445D01*
X155048768Y-100816788D01*
X155150586Y-100956928D01*
X155273072Y-101079414D01*
X155413212Y-101181232D01*
X155567555Y-101259873D01*
X155732299Y-101313402D01*
X155903389Y-101340500D01*
X155903390Y-101340500D01*
X156076610Y-101340500D01*
X156076611Y-101340500D01*
X156247701Y-101313402D01*
X156412445Y-101259873D01*
X156566788Y-101181232D01*
X156706928Y-101079414D01*
X156829414Y-100956928D01*
X156931232Y-100816788D01*
X157009873Y-100662445D01*
X157063402Y-100497701D01*
X157090500Y-100326611D01*
X157090500Y-100153389D01*
X157063402Y-99982299D01*
X157009873Y-99817555D01*
X156931232Y-99663212D01*
X156829414Y-99523072D01*
X156706928Y-99400586D01*
X156630703Y-99345205D01*
X157380000Y-99345205D01*
X157380000Y-100090000D01*
X158052555Y-100090000D01*
X158030000Y-100174174D01*
X158030000Y-100305826D01*
X158052555Y-100390000D01*
X157380001Y-100390000D01*
X157380001Y-101134785D01*
X157380002Y-101134808D01*
X157382908Y-101159869D01*
X157382909Y-101159873D01*
X157428211Y-101262474D01*
X157428214Y-101262479D01*
X157507520Y-101341785D01*
X157507525Y-101341788D01*
X157610123Y-101387089D01*
X157635206Y-101389999D01*
X158379999Y-101389999D01*
X158380000Y-101389998D01*
X158380000Y-100717445D01*
X158464174Y-100740000D01*
X158595826Y-100740000D01*
X158680000Y-100717445D01*
X158680000Y-101389999D01*
X159424786Y-101389999D01*
X159424808Y-101389997D01*
X159449869Y-101387091D01*
X159449873Y-101387090D01*
X159552474Y-101341788D01*
X159552479Y-101341785D01*
X159631785Y-101262479D01*
X159631788Y-101262474D01*
X159677089Y-101159877D01*
X159677089Y-101159875D01*
X159679999Y-101134794D01*
X159680000Y-101134791D01*
X159680000Y-100390000D01*
X159007445Y-100390000D01*
X159030000Y-100305826D01*
X159030000Y-100174174D01*
X159007445Y-100090000D01*
X159679999Y-100090000D01*
X159679999Y-99345214D01*
X159679997Y-99345191D01*
X159677091Y-99320130D01*
X159677090Y-99320126D01*
X159631788Y-99217525D01*
X159631785Y-99217520D01*
X159552479Y-99138214D01*
X159552474Y-99138211D01*
X159449876Y-99092910D01*
X159424794Y-99090000D01*
X158680000Y-99090000D01*
X158680000Y-99762554D01*
X158595826Y-99740000D01*
X158464174Y-99740000D01*
X158380000Y-99762554D01*
X158380000Y-99090000D01*
X157635214Y-99090000D01*
X157635191Y-99090002D01*
X157610130Y-99092908D01*
X157610126Y-99092909D01*
X157507525Y-99138211D01*
X157507520Y-99138214D01*
X157428214Y-99217520D01*
X157428211Y-99217525D01*
X157382910Y-99320122D01*
X157382910Y-99320124D01*
X157380000Y-99345205D01*
X156630703Y-99345205D01*
X156566788Y-99298768D01*
X156412445Y-99220127D01*
X156247701Y-99166598D01*
X156247699Y-99166597D01*
X156247698Y-99166597D01*
X156116271Y-99145781D01*
X156076611Y-99139500D01*
X155903389Y-99139500D01*
X155863728Y-99145781D01*
X155732302Y-99166597D01*
X155732299Y-99166598D01*
X155575579Y-99217520D01*
X155567552Y-99220128D01*
X155413211Y-99298768D01*
X155349316Y-99345191D01*
X155273072Y-99400586D01*
X155273070Y-99400588D01*
X155273069Y-99400588D01*
X155150588Y-99523069D01*
X155150588Y-99523070D01*
X155150586Y-99523072D01*
X155129240Y-99552452D01*
X155048768Y-99663211D01*
X154970128Y-99817552D01*
X154916597Y-99982302D01*
X154906349Y-100047007D01*
X154889500Y-100153389D01*
X154550500Y-100153389D01*
X154523402Y-99982299D01*
X154469873Y-99817555D01*
X154391232Y-99663212D01*
X154289414Y-99523072D01*
X154166928Y-99400586D01*
X154026788Y-99298768D01*
X153872445Y-99220127D01*
X153707701Y-99166598D01*
X153707699Y-99166597D01*
X153707698Y-99166597D01*
X153576271Y-99145781D01*
X153536611Y-99139500D01*
X153363389Y-99139500D01*
X153323728Y-99145781D01*
X153192302Y-99166597D01*
X153192299Y-99166598D01*
X153035579Y-99217520D01*
X153027552Y-99220128D01*
X152873211Y-99298768D01*
X152809316Y-99345191D01*
X152733072Y-99400586D01*
X152733070Y-99400588D01*
X152733069Y-99400588D01*
X152610588Y-99523069D01*
X152610588Y-99523070D01*
X152610586Y-99523072D01*
X152589240Y-99552452D01*
X152508768Y-99663211D01*
X152430128Y-99817552D01*
X152376597Y-99982302D01*
X152366349Y-100047007D01*
X152349500Y-100153389D01*
X152010500Y-100153389D01*
X151983402Y-99982299D01*
X151929873Y-99817555D01*
X151851232Y-99663212D01*
X151749414Y-99523072D01*
X151626928Y-99400586D01*
X151486788Y-99298768D01*
X151332445Y-99220127D01*
X151167701Y-99166598D01*
X151167699Y-99166597D01*
X151167698Y-99166597D01*
X151036271Y-99145781D01*
X150996611Y-99139500D01*
X150823389Y-99139500D01*
X150783728Y-99145781D01*
X150652302Y-99166597D01*
X150652299Y-99166598D01*
X150495579Y-99217520D01*
X150487552Y-99220128D01*
X150333211Y-99298768D01*
X150269316Y-99345191D01*
X150193072Y-99400586D01*
X150193070Y-99400588D01*
X150193069Y-99400588D01*
X150070588Y-99523069D01*
X150070588Y-99523070D01*
X150070586Y-99523072D01*
X150049240Y-99552452D01*
X149968768Y-99663211D01*
X149890128Y-99817552D01*
X149836597Y-99982302D01*
X149826349Y-100047007D01*
X149809500Y-100153389D01*
X116410499Y-100153389D01*
X116410499Y-99862128D01*
X116404091Y-99802517D01*
X116353796Y-99667669D01*
X116353795Y-99667668D01*
X116353793Y-99667664D01*
X116267547Y-99552455D01*
X116267544Y-99552452D01*
X116152335Y-99466206D01*
X116152328Y-99466202D01*
X116017482Y-99415908D01*
X116017483Y-99415908D01*
X115957883Y-99409501D01*
X115957881Y-99409500D01*
X115957873Y-99409500D01*
X115957864Y-99409500D01*
X112762129Y-99409500D01*
X112762123Y-99409501D01*
X112702516Y-99415908D01*
X112567671Y-99466202D01*
X112567664Y-99466206D01*
X112452455Y-99552452D01*
X112452452Y-99552455D01*
X112366206Y-99667664D01*
X112366202Y-99667671D01*
X112315908Y-99802517D01*
X112309786Y-99859464D01*
X112309501Y-99862123D01*
X112309500Y-99862135D01*
X108516712Y-99862135D01*
X108440737Y-85553432D01*
X108444251Y-85533941D01*
X108440388Y-85487775D01*
X108440143Y-85441451D01*
X108440140Y-85441441D01*
X108439039Y-85433398D01*
X108439909Y-85433278D01*
X108437770Y-85418493D01*
X108436657Y-85362352D01*
X108433521Y-85204252D01*
X108434211Y-85188517D01*
X108437540Y-85157648D01*
X109219500Y-85157648D01*
X109219500Y-85362351D01*
X109251522Y-85564534D01*
X109314781Y-85759223D01*
X109407715Y-85941613D01*
X109528028Y-86107213D01*
X109672786Y-86251971D01*
X109827749Y-86364556D01*
X109838390Y-86372287D01*
X109954607Y-86431503D01*
X110020776Y-86465218D01*
X110020778Y-86465218D01*
X110020781Y-86465220D01*
X110125137Y-86499127D01*
X110215465Y-86528477D01*
X110316557Y-86544488D01*
X110417648Y-86560500D01*
X110417649Y-86560500D01*
X110622351Y-86560500D01*
X110622352Y-86560500D01*
X110824534Y-86528477D01*
X111019219Y-86465220D01*
X111201610Y-86372287D01*
X111294590Y-86304732D01*
X111367213Y-86251971D01*
X111367215Y-86251968D01*
X111367219Y-86251966D01*
X111511966Y-86107219D01*
X111511968Y-86107215D01*
X111511971Y-86107213D01*
X111564732Y-86034590D01*
X111632287Y-85941610D01*
X111725220Y-85759219D01*
X111788477Y-85564534D01*
X111820500Y-85362352D01*
X111820500Y-85157648D01*
X111817622Y-85139480D01*
X111788477Y-84955465D01*
X111725218Y-84760776D01*
X111657094Y-84627077D01*
X111632287Y-84578390D01*
X111624556Y-84567749D01*
X111511971Y-84412786D01*
X111367213Y-84268028D01*
X111201613Y-84147715D01*
X111201612Y-84147714D01*
X111201610Y-84147713D01*
X111139654Y-84116145D01*
X111019223Y-84054781D01*
X110824534Y-83991522D01*
X110649995Y-83963878D01*
X110622352Y-83959500D01*
X110417648Y-83959500D01*
X110393329Y-83963351D01*
X110215465Y-83991522D01*
X110020776Y-84054781D01*
X109838386Y-84147715D01*
X109672786Y-84268028D01*
X109528028Y-84412786D01*
X109407715Y-84578386D01*
X109314781Y-84760776D01*
X109251522Y-84955465D01*
X109219500Y-85157648D01*
X108437540Y-85157648D01*
X108461677Y-84933811D01*
X108464356Y-84918302D01*
X108523925Y-84669136D01*
X108528558Y-84654072D01*
X108619259Y-84414498D01*
X108625765Y-84400145D01*
X108746142Y-84174012D01*
X108754411Y-84160607D01*
X108902529Y-83951552D01*
X108912405Y-83939341D01*
X109085861Y-83750769D01*
X109097227Y-83739892D01*
X109293190Y-83574876D01*
X109305853Y-83565521D01*
X109521176Y-83426706D01*
X109534924Y-83419034D01*
X109766120Y-83308669D01*
X109780747Y-83302798D01*
X110024065Y-83222672D01*
X110039303Y-83218707D01*
X110290840Y-83170103D01*
X110306461Y-83168105D01*
X110566058Y-83151566D01*
X110573616Y-83151315D01*
X110635892Y-83151315D01*
X110636507Y-83151149D01*
X110642800Y-83151133D01*
X114950688Y-83140269D01*
X115017776Y-83159785D01*
X115063664Y-83212473D01*
X115075000Y-83264269D01*
X115075000Y-94725000D01*
X163075000Y-94725000D01*
X163075000Y-85157648D01*
X167959500Y-85157648D01*
X167959500Y-85362351D01*
X167991522Y-85564534D01*
X168054781Y-85759223D01*
X168147715Y-85941613D01*
X168268028Y-86107213D01*
X168412786Y-86251971D01*
X168567749Y-86364556D01*
X168578390Y-86372287D01*
X168694607Y-86431503D01*
X168760776Y-86465218D01*
X168760778Y-86465218D01*
X168760781Y-86465220D01*
X168865137Y-86499127D01*
X168955465Y-86528477D01*
X169056557Y-86544488D01*
X169157648Y-86560500D01*
X169157649Y-86560500D01*
X169362351Y-86560500D01*
X169362352Y-86560500D01*
X169564534Y-86528477D01*
X169759219Y-86465220D01*
X169941610Y-86372287D01*
X170034590Y-86304732D01*
X170107213Y-86251971D01*
X170107215Y-86251968D01*
X170107219Y-86251966D01*
X170251966Y-86107219D01*
X170251968Y-86107215D01*
X170251971Y-86107213D01*
X170304732Y-86034590D01*
X170372287Y-85941610D01*
X170465220Y-85759219D01*
X170528477Y-85564534D01*
X170560500Y-85362352D01*
X170560500Y-85157648D01*
X170557622Y-85139480D01*
X170528477Y-84955465D01*
X170465218Y-84760776D01*
X170397094Y-84627077D01*
X170372287Y-84578390D01*
X170364556Y-84567749D01*
X170251971Y-84412786D01*
X170107213Y-84268028D01*
X169941613Y-84147715D01*
X169941612Y-84147714D01*
X169941610Y-84147713D01*
X169879654Y-84116145D01*
X169759223Y-84054781D01*
X169564534Y-83991522D01*
X169389995Y-83963878D01*
X169362352Y-83959500D01*
X169157648Y-83959500D01*
X169133329Y-83963351D01*
X168955465Y-83991522D01*
X168760776Y-84054781D01*
X168578386Y-84147715D01*
X168412786Y-84268028D01*
X168268028Y-84412786D01*
X168147715Y-84578386D01*
X168054781Y-84760776D01*
X167991522Y-84955465D01*
X167959500Y-85157648D01*
X163075000Y-85157648D01*
X163075000Y-83142603D01*
X163094685Y-83075564D01*
X163147489Y-83029809D01*
X163198686Y-83018603D01*
X169798991Y-83001960D01*
X169834142Y-83006954D01*
G37*
%TD.AperFunction*%
%TD*%
M02*
